<?xml version="1.0" encoding="UTF-8"?><svg id="Layer_2" xmlns="http://www.w3.org/2000/svg" viewBox="0 0 100.27 91.71"><defs><style>.cls-1{opacity:.9;}</style></defs><g id="Layer_1-2"><path class="cls-1" d="M96.91,43.96c-.72.45-1.5.99-2.35,1.27-.52.17-1.05.21-1.54.31s-.6.71-.21.99c2.01,1.44,2.1,2.99-.44,4.65-1.32.86-2.97,1.44-4.56,1.46-.59,0-2.43-.39-3.3-.34-.28.02-.51.26-.51.54,0,.78.95.97,1.5,1.55.55.59,1.2,1.66.87,2.47-.12.29-1.17,1.63-1.5,1.85-1.94,1.3-4.26,1.6-6.54,1.51-.6-.02-.93-.07-1.43-.15-.04,0-.09,0-.16-.02-.6-.09-1.14-.1-1.76-.27-1.78-.47-4.32-1.91-6.01-2.13-.47-.06-1.1-.03-1.34.46-.41.84.87,1.44,1.24,1.95,1.58,2.19,1.1,4.21-1.31,5.4-5.47,2.69-8.89-.76-13.76-1.64-.68-.12-2.67-.35-2.3.71.37,1.08,4.84,2.51,3.04,4-2.93,2.42-8.46-.53-11.67-1.02-1.48-.23-3.36-.2-4.84-.02-.39.05-2.77,1.03-2.83,1.06-.35.18-.72.33-1.06.53-.53.31-1.28.72-1.77,1.06-.76.52-1.78,1.33-2.65,1.95-.94.66-1.82,1.46-2.83,2.12-.88.58-1.8,1.15-2.65,1.77v.18c4.14-.57,7.15-2.49,11.17-3.42,3.36-.78,6.68-.88,10.11-.27,1.17.21,3.38.57,3.99,1.69.58,1.07-1.84,1.47-1.39,2.17.25.38,2.71-.15,3.26-.16,2.06-.06,5.95.61,7.75,1.62,1.53.86,3.48,3.16.97,3.82-.08.02-.15.05-.21.11-.11.09-.33.24-.53.37-.32.2-.35.66-.05.89.02.02.04.03.06.05,1.41,1.22,3.22,2,4.35,3.61.61.88,1.66,3.1.66,3.93-2.29,1.9-6.81,1.15-9.31-.05-1.17-.56-2.22-1.53-3.5-1.97-.42-.15-.84.25-.71.68.24.79.83,1.64-.09,2.05-1.15.51-3.36-.19-4.42-.79-.28-.16-.31-.2-.53-.35-1.95-1.37-2.91-3.3-4.51-4.95-.78-.8-1.33-1.6-2.57-1.06h0c.99,1.39-.25,2.86-1.81,2.43-.17-.05-1.92-1.18-2.17-1.37-3.27-2.52-4.14-5.21-8.93-5.84-2.53-.33-4.14.18-6.37,1.24-1.44.68-2.67,1.58-4.07,2.3-.23.12-1,.62-1.06.71-.32.44-.56.56-.88.88-.83.84-1.75,1.69-2.48,2.3-.49.42-.89.7-1.41,1.06-.81.55-2.92,1.96-3.18,2.12-.41.25-1.5.79-1.77.88-1.41.62-4.68-.45-4.59-2.04.06-.98,3.38-1.98,4.27-2.43,6.24-3.1,11.35-7.31,15.35-13.04.53-.76,1.52-2.39,1.95-3.18,1.87-3.5,3.57-10.08,3.14-14.01-.19-1.71-1.22-4.51-1.72-6.32-.39-1.42-.87-2.81-1.24-4.24-.24-.95-.62-1.82-.71-2.83-.1-1.22-.1-4.55,1.77-4.42,1.06-.15,2.2.29,2.99.99.34.3,1.7,2.62,1.8.69.08-1.49-1.04-4.49-1.43-6.1-.62-2.55-1.26-4.81-1.06-7.51.22-2.92,1.83-7.67,5.56-6.62,1.79.5,2.59,1.3,3.53,2.83.57.93.99,2.56,1.44,3.16.97,1.29,1.16-1.73,1.15-2.39-.04-3.48-1.13-6.26-.5-10.03.58-3.43,3.41-9.3,7.74-8.18,1.44.37,3.12,2.59,3.67,3.94.1.24.24.93.43,1.5.15.46.78.52,1.01.09,1.41-2.6,2.29-5.51,4.26-7.82,1.55-1.81,4.84-4.45,6.69-1.57.16.26.67,1.36.71,1.61.07.42-.14.92-.15,1.43,0,.43.47.7.84.47.63-.39,1.5-1.08,1.81-1.25,3.31-1.82,8.3-4.28,11.68-1.5.58.48.99.83,1.24,1.59.87,2.64-.78,5.33-2.54,7.19-.32.34-2.33,1.63-1.78,2.02.41.29,1.36.39,1.93.87,1.35,1.12,1.13,2.33.44,3.72-1.56,3.16-5.01,3.27-8,3.93-.52.12-1.91.35-1.91.93,0,.49,2.38,1.7,2.62,2.51.57,1.93-1.9,4.29-3.37,5.22-1.28.8-3.37,1.61-4.86,1.86-1.17.2-3.37,0-4.2.58-2.16,1.48.46,1.86,1.24,2.65,1.69,1.71-.13,4.16-1.5,5.4-1.79,1.62-4.32,2.61-6.68,3.05-1.11.2-4.5.26-5.17,1.02-1.18,1.33,1.53,1.34,2.17,1.55,2.25.74,1.3,2.51.28,3.91-2.42,3.32-11.27,6.89-11.47,7.02-.3.19-.58.35-.88.53-.05.03-2.97,2.41-3.71,3.18-2.37,2.48-2.13,4.12-3.18,7.17-.31.89-2.13,4.71-2.12,5.14.03.88.38.15.56.02,2.92-2.06,6.38-4.67,9.14-6.94,4.15-3.42,4.67-6.95,7.51-10.88,1.19-1.65,4.08-4.45,5.71-2.28l.83.06c2.29-2.3,3.17-5.6,4.81-8.35,1.43-2.41,4.37-6.33,7.28-6.87,1.7-.32,2.66,1.16,2.53,2.7,0,.05-.01.11-.02.16-.11.52.49.91.89.56,1.74-1.53,2.46-3.9,3.76-5.81,1.6-2.35,4.12-4.57,6.82-5.56,1.36-.5,5.07-1.22,6.07.09,1.29,1.7-1.19,5.94-.53,6.41.47.34,2.52-1.83,3.02-2.2.75-.55,1.3-.79,2.11-1.16,1.61-.74,4.26-1.89,5.46.11.46.77.03,1.27,1.32,1.23.52-.01,1.11-.26,1.62-.28,6.84-.29,11.26,5.66,4.51,9.9Z"/></g></svg>