<?xml version="1.0" encoding="UTF-8"?><svg id="Layer_2" xmlns="http://www.w3.org/2000/svg" viewBox="0 0 945.66 147"><defs><style>.cls-1{fill:#fff;}</style></defs><g id="Layer_1-2"><path class="cls-1" d="M228.42,21.53c-.13-14.01-1.43-15.95-11.15-15.95h-1.3V1.3h40.99v4.28h-1.43c-9.73,0-11.02,1.82-11.15,15.95v45.39c0,13.88,1.69,16.47,10.77,16.6h1.82v4.28h-40.99v-4.28h1.69c9.08,0,10.77-2.72,10.77-16.6v-21.92h-41.63v21.92c0,13.88,1.69,16.6,10.77,16.6h1.69v4.28h-40.99v-4.28h1.82c9.08-.13,10.77-2.72,10.77-16.6V21.53c-.13-14.14-1.43-15.95-11.15-15.95h-1.43V1.3h40.99v4.28h-1.3c-9.73,0-11.02,1.95-11.15,15.95v17.9h41.63v-17.9Z"/><path class="cls-1" d="M315.57,87.81v-4.28h.91c6.35,0,8.95-1.3,8.95-4.15,0-1.56-.13-1.95-2.46-7.78l-5.32-12.71h-30.74l-1.95,4.8c-3.76,9.08-4.02,9.99-4.02,13.1,0,3.76,3.63,6.74,8.3,6.74h1.04v4.28h-26.72v-4.28l1.04-.13c6.23-1.3,9.47-5.06,14.01-16.73L305.98,0h4.28l28.27,68.09c5.58,13.1,6.61,14.4,13.23,15.3l.78.13v4.28h-36.96ZM302.21,21.27l-13.62,33.2h27.37l-13.75-33.2Z"/><path class="cls-1" d="M423.1,87.81c-4.02-3.11-10.25-11.28-16.73-21.53-11.02-17.12-13.49-19.46-19.58-18.94h-3.11v19.58c.13,14.14,1.56,16.47,10.77,16.6h3.24v4.28h-43.19v-4.28h2.46c9.21-.13,10.64-2.46,10.77-16.6V21.53c0-14.14-1.43-15.95-11.28-15.95h-1.56V1.3l15.56-.52c8.95-.26,14.01-.39,17.77-.39,12.97,0,23.22,1.82,29.44,5.32,6.74,3.76,10.64,9.99,10.64,17.51,0,11.28-7.39,18.42-22.18,21.53,3.89,2.21,9.86,9.08,17.9,20.62,9.86,13.62,15.05,17.77,22.96,18.16h.65v4.28h-24.51ZM383.67,42.67c5.32,0,9.99-.26,13.75-.65,8.95-1.17,13.62-7.39,13.62-18.16,0-6.23-1.69-11.02-5.06-14.27-3.24-2.98-8.43-4.28-17.25-4.28-1.82,0-2.85,0-5.06.13v37.22Z"/><path class="cls-1" d="M442.42,23.35l.26-22.05h84.69l.39,22.05h-4.28c-3.11-14.79-6.48-17.9-18.94-17.51h-11.67v61.09c.13,14.14,1.56,16.47,10.77,16.6h3.63v4.28h-44.62v-4.28h3.63c9.21-.13,10.64-2.46,10.77-16.6V5.84h-10.9c-13.49-.39-16.6,2.33-19.33,17.51h-4.41Z"/><path class="cls-1" d="M594.82,67.83L624.78,1.3h29.31v4.28h-2.72c-9.99,0-11.02,1.56-11.28,15.95v45.39c.13,14.14,1.56,16.47,10.89,16.6h3.24v4.28h-43.32v-4.28h2.59c9.21-.13,10.64-2.46,10.77-16.6V13.23l-33.46,74.58h-3.63l-33.85-74.19v48.64c-.52,15.3,2.33,19.97,12.71,21.14l.65.13v4.28h-31v-4.28l.78-.13c9.99-1.17,12.84-5.97,12.32-21.4V21.66c0-14.14-1.43-16.08-11.28-16.08h-1.82V1.3h29.18l29.96,66.54Z"/><path class="cls-1" d="M712.85,87.81v-4.28h.91c6.36,0,8.95-1.3,8.95-4.15,0-1.56-.13-1.95-2.46-7.78l-5.32-12.71h-30.74l-1.95,4.8c-3.76,9.08-4.02,9.99-4.02,13.1,0,3.76,3.63,6.74,8.3,6.74h1.04v4.28h-26.72v-4.28l1.04-.13c6.23-1.3,9.47-5.06,14.01-16.73L703.25,0h4.28l28.27,68.09c5.58,13.1,6.62,14.4,13.23,15.3l.78.13v4.28h-36.96ZM699.49,21.27l-13.62,33.2h27.37l-13.75-33.2Z"/><path class="cls-1" d="M828.41,89.62l-59.53-75.1v53.18c.13,8.04.26,8.43,1.3,10.38,1.95,3.24,6.74,5.45,11.8,5.45h1.17v4.28h-32.29v-4.28l.65-.13c5.19-.26,10.12-2.46,11.54-5.32.91-1.56,1.04-2.98,1.04-10.38V22.44c-.52-14.66-2.08-16.86-11.93-16.86h-.78V1.3h26.72l50.06,62.65V19.07c.13-9.21-2.98-12.58-12.45-13.49h-1.43V1.3h31.39v4.28l-1.04.13c-9.08,1.3-12.06,4.8-11.67,14.01v69.91h-4.54Z"/><path class="cls-1" d="M928.41,89.62l-59.53-75.1v53.18c.13,8.04.26,8.43,1.3,10.38,1.95,3.24,6.74,5.45,11.8,5.45h1.17v4.28h-32.29v-4.28l.65-.13c5.19-.26,10.12-2.46,11.54-5.32.91-1.56,1.04-2.98,1.04-10.38V22.44c-.52-14.66-2.08-16.86-11.93-16.86h-.78V1.3h26.72l50.06,62.65V19.07c.13-9.21-2.98-12.58-12.45-13.49h-1.43V1.3h31.39v4.28l-1.04.13c-9.08,1.3-12.06,4.8-11.67,14.01v69.91h-4.54Z"/><path class="cls-1" d="M175.86,132.14c0,2.49.14,2.58,4.01,2.87v1.67h-13v-1.67c3.87-.29,3.97-.38,3.97-2.87v-21.98c0-2.53-.05-2.63-3.97-2.87v-1.67h14.24c7.65,0,9.75,3.54,9.75,7.69s-2.92,6.79-7.12,7.69v.05c4.68,1.1,5.93,4.68,6.36,8.36.38,2.87,1.15,5.21,4.59,5.59v1.67h-3.87c-2.72,0-4.44-.91-5.21-3.78-.48-2.01-1.05-6.02-1.34-6.98-.86-3.15-3.35-3.97-5.59-3.97h-2.82v10.18ZM175.86,120h3.39c4.11,0,6.31-1.72,6.31-6.26,0-6.12-3.73-6.17-6.98-6.17-2.87,0-2.72.33-2.72,2.2v10.23Z"/><path class="cls-1" d="M200.8,125.06c-.1,4.64,1.05,9.56,6.55,9.56,3.11,0,4.83-1.82,6.21-4.54l1.72.96c-1.34,3.58-3.97,6.21-8.98,6.21-7.55,0-10.51-4.4-10.51-11.42s3.39-11.76,10.47-11.76c8.27,0,9.32,6.36,9.32,9.13,0,1.67-1.05,1.86-1.86,1.86h-12.9ZM209.07,122.91c1.15,0,1.48-.38,1.48-1.15,0-1.72-.53-5.74-4.49-5.74-4.49,0-5.21,4.97-5.21,6.88h8.22Z"/><path class="cls-1" d="M236.26,130.51c0,2.82.76,3.58,1.58,3.78.43.1,1.15.1,1.77,0l.24,1.67c-1.15.72-3.35,1.29-5.02,1.29-1.53,0-2.34-.81-2.96-2.53-1.48.91-3.87,2.53-6.64,2.53-4.25,0-6.6-2.96-6.6-6.36,0-2.15,1-4.68,4.21-5.69,3.54-1.1,7.89-2.25,9.03-3.44v-1.29c0-3.49-1.86-4.4-3.87-4.4-1.58,0-3.15.72-4.35,4.01-.29.86-.72,1.43-1.67,1.43s-2.53-.72-2.53-2.2c0-2.58,3.68-5.26,8.89-5.26,6.88,0,7.93,3.54,7.93,6.21v10.23ZM231.86,124.06c-1,.57-3.25,1.43-5.02,2.1-2.39.96-3.35,2.01-3.35,4.11,0,2.58,1.34,4.25,3.97,4.25,1.72,0,4.4-.91,4.4-4.4v-6.07Z"/><path class="cls-1" d="M244.04,108.24c0-1.67-.24-1.86-1.39-2.01l-1.82-.14v-1.48l7.36-1.24.43.33v28.72c0,2.25.14,2.34,3.39,2.58v1.67h-11.37v-1.67c3.25-.24,3.39-.33,3.39-2.58v-24.18Z"/><path class="cls-1" d="M266.93,110.15c0-2.53-.05-2.63-4.01-2.87v-1.67h22.99v7.41h-1.67c-.76-4.64-1.62-5.54-6.55-5.54h-4.16c-1.43,0-1.62.19-1.62,1.62v10.32h5.93c3.63,0,3.58-1.15,4.01-3.92h1.72v9.99h-1.72c-.38-2.68-.33-3.97-4.01-3.97h-5.93v9.42c0,2.92.53,3.78,5.59,3.78,5.64,0,7.46-1,8.51-6.36h1.72l-.91,8.32h-23.9v-1.67c3.97-.29,4.01-.38,4.01-2.87v-21.98Z"/><path class="cls-1" d="M303.06,120.95c-.19-2.44-1.53-4.92-4.59-4.92-2.2,0-3.97,1.1-3.97,3.35s3.11,3.44,4.78,4.01c4.87,1.67,6.98,3.15,6.98,7.12s-3.01,6.74-8.36,6.74c-2.63,0-5.54-.57-7.31-2.34l-.43-5.73h1.62c.96,3.82,2.72,6.12,6.31,6.12,2.2,0,3.97-1.34,3.97-3.39,0-2.25-2.29-3.39-5.07-4.4-3.97-1.39-6.45-2.77-6.45-6.93s3.35-6.5,8.32-6.5c1.91,0,4.3.43,5.88,1.43v5.45h-1.67Z"/><path class="cls-1" d="M315.82,116.89v13.09c0,3.39,1.39,4.44,2.92,4.44,1.05,0,1.86-.14,2.92-.57l.43,1.43c-1.62,1-3.35,1.96-5.69,1.96-1.67,0-5.16-.72-5.16-5.21v-15.15h-3.3v-2.25h3.49l2.82-5.64h1.58v5.64h5.78v2.25h-5.78Z"/><path class="cls-1" d="M341,130.51c0,2.82.76,3.58,1.58,3.78.43.1,1.15.1,1.77,0l.24,1.67c-1.15.72-3.35,1.29-5.02,1.29-1.53,0-2.34-.81-2.96-2.53-1.48.91-3.87,2.53-6.64,2.53-4.25,0-6.6-2.96-6.6-6.36,0-2.15,1-4.68,4.21-5.69,3.54-1.1,7.89-2.25,9.03-3.44v-1.29c0-3.49-1.86-4.4-3.87-4.4-1.58,0-3.15.72-4.35,4.01-.29.86-.72,1.43-1.67,1.43s-2.53-.72-2.53-2.2c0-2.58,3.68-5.26,8.89-5.26,6.88,0,7.93,3.54,7.93,6.21v10.23ZM336.6,124.06c-1,.57-3.25,1.43-5.02,2.1-2.39.96-3.35,2.01-3.35,4.11,0,2.58,1.34,4.25,3.97,4.25,1.72,0,4.4-.91,4.4-4.4v-6.07Z"/><path class="cls-1" d="M352.9,116.89v13.09c0,3.39,1.39,4.44,2.92,4.44,1.05,0,1.86-.14,2.92-.57l.43,1.43c-1.62,1-3.35,1.96-5.69,1.96-1.67,0-5.16-.72-5.16-5.21v-15.15h-3.3v-2.25h3.49l2.82-5.64h1.58v5.64h5.78v2.25h-5.78Z"/><path class="cls-1" d="M365.46,125.06c-.1,4.64,1.05,9.56,6.55,9.56,3.11,0,4.83-1.82,6.21-4.54l1.72.96c-1.34,3.58-3.97,6.21-8.98,6.21-7.55,0-10.51-4.4-10.51-11.42s3.39-11.76,10.47-11.76c8.27,0,9.32,6.36,9.32,9.13,0,1.67-1.05,1.86-1.86,1.86h-12.9ZM373.73,122.91c1.15,0,1.48-.38,1.48-1.15,0-1.72-.53-5.74-4.49-5.74-4.49,0-5.21,4.97-5.21,6.88h8.22Z"/><path class="cls-1" d="M407.04,105.61c5.45,0,9.7,1,12.57,3.78,2.72,2.63,3.87,6.59,3.87,11.18,0,11.28-7.26,16.11-17.35,16.11h-14.19v-1.67c4.01-.29,4.01-.33,4.01-2.87v-22.03c0-2.49,0-2.58-4.01-2.82v-1.67h15.1ZM400.97,130.85c0,3.34.57,3.87,4.35,3.87,7.5,0,12.62-2.77,12.62-14.05,0-7.5-2.82-13.14-12.09-13.09-4.64,0-4.87.24-4.87,2.39v20.88Z"/><path class="cls-1" d="M432.36,125.06c-.1,4.64,1.05,9.56,6.55,9.56,3.11,0,4.83-1.82,6.21-4.54l1.72.96c-1.34,3.58-3.97,6.21-8.98,6.21-7.55,0-10.51-4.4-10.51-11.42s3.39-11.76,10.47-11.76c8.27,0,9.32,6.36,9.32,9.13,0,1.67-1.05,1.86-1.86,1.86h-12.9ZM440.63,122.91c1.15,0,1.48-.38,1.48-1.15,0-1.72-.53-5.74-4.49-5.74-4.49,0-5.21,4.97-5.21,6.88h8.22Z"/><path class="cls-1" d="M457.93,136.68c-2.25-6.26-4.49-12.33-6.83-18.35-.67-1.62-1.15-1.82-3.25-1.96v-1.72h10.56v1.72l-2.1.19c-.76.1-.86.53-.62,1.24,1.72,4.92,3.39,9.7,5.11,14.38h.1c1.39-3.68,4.01-10.71,5.07-14.58.14-.43.1-.96-.53-1.05l-2.39-.19v-1.72h8.89v1.72c-2.01.09-2.44.38-3.15,1.77-1.1,2.15-4.64,11.33-7.31,18.54h-3.54Z"/><path class="cls-1" d="M477.18,125.06c-.1,4.64,1.05,9.56,6.55,9.56,3.11,0,4.83-1.82,6.21-4.54l1.72.96c-1.34,3.58-3.97,6.21-8.98,6.21-7.55,0-10.51-4.4-10.51-11.42s3.39-11.76,10.47-11.76c8.27,0,9.32,6.36,9.32,9.13,0,1.67-1.05,1.86-1.86,1.86h-12.9ZM485.45,122.91c1.15,0,1.48-.38,1.48-1.15,0-1.72-.53-5.74-4.49-5.74-4.49,0-5.21,4.97-5.21,6.88h8.22Z"/><path class="cls-1" d="M497.16,108.24c0-1.67-.24-1.86-1.39-2.01l-1.82-.14v-1.48l7.36-1.24.43.33v28.72c0,2.25.14,2.34,3.39,2.58v1.67h-11.37v-1.67c3.25-.24,3.39-.33,3.39-2.58v-24.18Z"/><path class="cls-1" d="M529.27,125.68c0,7.26-3.63,11.57-10.94,11.57s-10.94-4.3-10.94-11.57,3.68-11.61,10.99-11.61,10.9,4.3,10.9,11.61ZM518.33,135.29c4.01,0,5.93-3.54,5.93-9.61s-1.91-9.65-5.93-9.65-5.93,3.54-5.93,9.7,1.91,9.56,5.93,9.56Z"/><path class="cls-1" d="M534.95,119.04c0-1.62-.29-1.86-1.29-2.01l-1.86-.24v-1.53l7.12-1.15.62,3.25c1.77-1.19,4.35-3.3,7.55-3.3,7.79,0,8.84,7.55,8.84,11.13,0,9.37-5.3,12.04-11.42,12.04-1.96,0-4.06-.43-4.97-.96v6.5c0,2.25.29,2.29,3.97,2.53v1.67h-11.85v-1.67c3.06-.24,3.3-.29,3.3-2.53v-23.75ZM539.54,129.46c0,1,0,1.91.29,2.68.67,2.05,2.44,3.15,4.73,3.15,4.4,0,6.36-3.3,6.36-9.8,0-7.69-3.82-8.55-5.59-8.55-2.34,0-4.25,1.15-5.26,3.15-.33.81-.53,1.43-.53,2.48v6.88Z"/><path class="cls-1" d="M561.95,118.95c0-1.53-.29-1.77-1.39-1.91l-1.82-.24v-1.53l7.36-1.15.38,3.3c1.29-1,4.3-3.34,7.79-3.34,3.25,0,4.87,1.39,5.97,3.34,1.1-.67,4.01-3.34,7.79-3.34,4.35,0,6.88,2.72,6.88,7.22v11.23c0,2.25.14,2.25,3.39,2.49v1.67h-11.23v-1.67c3.11-.24,3.3-.24,3.3-2.44v-10.13c0-3.82-1.72-5.59-4.45-5.54-2.68.05-4.64,1.62-5.07,3.58-.19.76-.14,1.43-.14,2.25v9.84c0,2.2.14,2.2,3.25,2.44v1.67h-11.09v-1.67c3.11-.24,3.25-.24,3.25-2.44v-10.13c0-2.39-.1-5.54-4.11-5.54-2.49,0-4.35,1.53-5.21,3.49-.29.62-.33,1.24-.33,2.29v9.89c0,2.2.24,2.2,3.25,2.44v1.67h-11.18v-1.67c3.15-.24,3.39-.24,3.39-2.49v-13.57Z"/><path class="cls-1" d="M605.63,125.06c-.09,4.64,1.05,9.56,6.55,9.56,3.11,0,4.83-1.82,6.21-4.54l1.72.96c-1.34,3.58-3.97,6.21-8.99,6.21-7.55,0-10.51-4.4-10.51-11.42s3.39-11.76,10.47-11.76c8.27,0,9.32,6.36,9.32,9.13,0,1.67-1.05,1.86-1.86,1.86h-12.9ZM613.89,122.91c1.15,0,1.48-.38,1.48-1.15,0-1.72-.53-5.74-4.49-5.74-4.49,0-5.21,4.97-5.21,6.88h8.22Z"/><path class="cls-1" d="M645.24,132.52c0,2.2.19,2.25,3.39,2.49v1.67h-11.28v-1.67c3.15-.24,3.35-.29,3.35-2.44v-10.13c0-3.82-1.58-5.54-4.59-5.54-2.34,0-4.25,1.48-5.21,3.3-.38.72-.43,1.34-.43,2.44v9.94c0,2.15.24,2.2,3.34,2.44v1.67h-11.28v-1.67c3.25-.24,3.39-.29,3.39-2.44v-13.62c0-1.53-.33-1.77-1.39-1.91l-1.62-.24v-1.53l6.88-1.15.62,3.3c2.77-1.77,4.83-3.34,8.12-3.34,4.16,0,6.69,2.63,6.69,7.12v11.33Z"/><path class="cls-1" d="M657.14,116.89v13.09c0,3.39,1.39,4.44,2.92,4.44,1.05,0,1.86-.14,2.92-.57l.43,1.43c-1.62,1-3.34,1.96-5.69,1.96-1.67,0-5.16-.72-5.16-5.21v-15.15h-3.3v-2.25h3.49l2.82-5.64h1.58v5.64h5.78v2.25h-5.78Z"/><path class="cls-1" d="M692.17,112.4c0,3.58-3.06,5.16-6.88,7.31,2.63,3.06,5.54,5.88,9.61,9.46,2.29-2.49,2.82-6.07,2.82-9.13,0-.91-.05-1.67-.19-2.39,1.24-.67,2.68-1,3.78-.86,1,1.48,1.15,3.11.72,4.49-.91,2.92-2.87,6.21-5.64,9.22,1.91,1.82,5.35,4.44,7.55,5.02l-.29,1.48-1.82-.1c-3.73-.19-5.07-.62-8.51-3.2-3.06,2.53-5.93,3.49-9.51,3.49-5.74,0-10.23-2.96-10.18-8.41.05-4.3,3.11-6.21,6.55-8.41-1.39-1.62-2.82-4.06-2.82-7.03,0-4.01,3.35-7.22,7.89-7.22,3.78,0,6.93,2.29,6.93,6.26ZM678.45,127.69c0,4.06,3.15,6.79,7.12,6.79,2.63,0,4.4-.53,6.17-2.1-4.21-3.58-7.5-6.88-10.47-10.42-.72.67-2.82,2.25-2.82,5.74ZM681.37,112.21c0,2.2,1.05,4.25,2.72,6.17,2.63-1.67,4.21-3.35,4.21-6.21,0-2.2-1.15-4.21-3.44-4.21-2.15,0-3.49,1.82-3.49,4.25Z"/><path class="cls-1" d="M723.56,132.14c0,2.53.14,2.58,4.06,2.87v1.67h-13v-1.67c3.87-.29,4.01-.33,4.01-2.87v-21.98c0-2.63-.09-2.63-4.01-2.87v-1.67h13v1.67c-3.92.24-4.06.29-4.06,2.87v21.98Z"/><path class="cls-1" d="M751.95,132.52c0,2.2.19,2.25,3.39,2.49v1.67h-11.28v-1.67c3.15-.24,3.35-.29,3.35-2.44v-10.13c0-3.82-1.58-5.54-4.59-5.54-2.34,0-4.25,1.48-5.21,3.3-.38.72-.43,1.34-.43,2.44v9.94c0,2.15.24,2.2,3.34,2.44v1.67h-11.28v-1.67c3.25-.24,3.39-.29,3.39-2.44v-13.62c0-1.53-.33-1.77-1.39-1.91l-1.62-.24v-1.53l6.88-1.15.62,3.3c2.77-1.77,4.83-3.34,8.12-3.34,4.16,0,6.69,2.63,6.69,7.12v11.33Z"/><path class="cls-1" d="M764.65,136.68c-2.25-6.26-4.49-12.33-6.83-18.35-.67-1.62-1.15-1.82-3.25-1.96v-1.72h10.56v1.72l-2.1.19c-.76.1-.86.53-.62,1.24,1.72,4.92,3.39,9.7,5.11,14.38h.1c1.39-3.68,4.01-10.71,5.07-14.58.14-.43.1-.96-.53-1.05l-2.39-.19v-1.72h8.89v1.72c-2.01.09-2.44.38-3.15,1.77-1.1,2.15-4.64,11.33-7.31,18.54h-3.54Z"/><path class="cls-1" d="M783.91,125.06c-.1,4.64,1.05,9.56,6.55,9.56,3.11,0,4.83-1.82,6.21-4.54l1.72.96c-1.34,3.58-3.97,6.21-8.99,6.21-7.55,0-10.51-4.4-10.51-11.42s3.39-11.76,10.47-11.76c8.27,0,9.32,6.36,9.32,9.13,0,1.67-1.05,1.86-1.86,1.86h-12.9ZM792.18,122.91c1.15,0,1.48-.38,1.48-1.15,0-1.72-.53-5.74-4.49-5.74-4.49,0-5.21,4.97-5.21,6.88h8.22Z"/><path class="cls-1" d="M814.54,120.95c-.19-2.44-1.53-4.92-4.59-4.92-2.2,0-3.97,1.1-3.97,3.35s3.11,3.44,4.78,4.01c4.88,1.67,6.98,3.15,6.98,7.12s-3.01,6.74-8.36,6.74c-2.63,0-5.54-.57-7.31-2.34l-.43-5.73h1.62c.96,3.82,2.72,6.12,6.31,6.12,2.2,0,3.97-1.34,3.97-3.39,0-2.25-2.29-3.39-5.07-4.4-3.97-1.39-6.45-2.77-6.45-6.93s3.34-6.5,8.32-6.5c1.91,0,4.3.43,5.88,1.43v5.45h-1.67Z"/><path class="cls-1" d="M827.3,116.89v13.09c0,3.39,1.39,4.44,2.92,4.44,1.05,0,1.86-.14,2.92-.57l.43,1.43c-1.62,1-3.35,1.96-5.69,1.96-1.67,0-5.16-.72-5.16-5.21v-15.15h-3.3v-2.25h3.49l2.82-5.64h1.58v5.64h5.78v2.25h-5.78Z"/><path class="cls-1" d="M837.33,118.95c0-1.53-.29-1.77-1.39-1.91l-1.82-.24v-1.53l7.36-1.15.38,3.3c1.29-1,4.3-3.34,7.79-3.34,3.25,0,4.87,1.39,5.97,3.34,1.1-.67,4.01-3.34,7.79-3.34,4.35,0,6.88,2.72,6.88,7.22v11.23c0,2.25.14,2.25,3.39,2.49v1.67h-11.23v-1.67c3.11-.24,3.3-.24,3.3-2.44v-10.13c0-3.82-1.72-5.59-4.45-5.54-2.68.05-4.64,1.62-5.07,3.58-.19.76-.14,1.43-.14,2.25v9.84c0,2.2.14,2.2,3.25,2.44v1.67h-11.09v-1.67c3.11-.24,3.25-.24,3.25-2.44v-10.13c0-2.39-.1-5.54-4.11-5.54-2.49,0-4.35,1.53-5.21,3.49-.29.62-.33,1.24-.33,2.29v9.89c0,2.2.24,2.2,3.25,2.44v1.67h-11.18v-1.67c3.15-.24,3.39-.24,3.39-2.49v-13.57Z"/><path class="cls-1" d="M881.01,125.06c-.09,4.64,1.05,9.56,6.55,9.56,3.11,0,4.83-1.82,6.21-4.54l1.72.96c-1.34,3.58-3.97,6.21-8.99,6.21-7.55,0-10.51-4.4-10.51-11.42s3.39-11.76,10.47-11.76c8.27,0,9.32,6.36,9.32,9.13,0,1.67-1.05,1.86-1.86,1.86h-12.9ZM889.28,122.91c1.15,0,1.48-.38,1.48-1.15,0-1.72-.53-5.74-4.49-5.74-4.49,0-5.21,4.97-5.21,6.88h8.22Z"/><path class="cls-1" d="M920.62,132.52c0,2.2.19,2.25,3.39,2.49v1.67h-11.28v-1.67c3.15-.24,3.34-.29,3.34-2.44v-10.13c0-3.82-1.58-5.54-4.59-5.54-2.34,0-4.25,1.48-5.21,3.3-.38.72-.43,1.34-.43,2.44v9.94c0,2.15.24,2.2,3.35,2.44v1.67h-11.28v-1.67c3.25-.24,3.39-.29,3.39-2.44v-13.62c0-1.53-.33-1.77-1.39-1.91l-1.62-.24v-1.53l6.88-1.15.62,3.3c2.77-1.77,4.83-3.34,8.12-3.34,4.16,0,6.69,2.63,6.69,7.12v11.33Z"/><path class="cls-1" d="M932.52,116.89v13.09c0,3.39,1.39,4.44,2.92,4.44,1.05,0,1.86-.14,2.92-.57l.43,1.43c-1.62,1-3.34,1.96-5.69,1.96-1.67,0-5.16-.72-5.16-5.21v-15.15h-3.3v-2.25h3.49l2.82-5.64h1.58v5.64h5.78v2.25h-5.78Z"/><path class="cls-1" d="M0,30.36v105.61c0,.38.31.69.69.69h96.07c21.34,0,38.64-17.3,38.64-38.64V1.96c0-.38-.31-.69-.69-.69H29.1C13.03,1.26,0,14.29,0,30.36ZM122.04,65.72c-.83.52-1.74,1.15-2.73,1.47-.6.2-1.22.24-1.79.35s-.7.82-.24,1.15c2.33,1.67,2.43,3.46-.5,5.39-1.53,1-3.44,1.66-5.28,1.69-.68,0-2.81-.45-3.82-.39-.33.02-.59.3-.59.62,0,.91,1.1,1.12,1.74,1.8.64.68,1.39,1.92,1.01,2.86-.14.34-1.35,1.89-1.74,2.15-2.25,1.5-4.93,1.85-7.57,1.75-.7-.03-1.08-.09-1.66-.18-.05,0-.11,0-.18-.03-.7-.11-1.32-.12-2.04-.31-2.06-.55-5.01-2.21-6.96-2.47-.54-.07-1.27-.03-1.55.53-.48.97,1.01,1.67,1.43,2.26,1.83,2.53,1.27,4.88-1.52,6.25-6.33,3.12-10.3-.89-15.93-1.9-.78-.14-3.09-.41-2.67.82.43,1.25,5.6,2.91,3.52,4.63-3.39,2.8-9.79-.61-13.51-1.18-1.71-.26-3.89-.23-5.61-.02-.46.05-3.2,1.19-3.28,1.23-.4.21-.84.39-1.23.61-.62.36-1.48.84-2.05,1.23-.88.6-2.06,1.54-3.07,2.25-1.09.76-2.11,1.69-3.28,2.46-1.02.67-2.08,1.33-3.07,2.05v.2c4.79-.66,8.28-2.88,12.93-3.96,3.89-.9,7.73-1.02,11.71-.32,1.36.24,3.91.65,4.61,1.95.67,1.24-2.13,1.7-1.61,2.51.29.44,3.14-.17,3.78-.19,2.38-.06,6.89.7,8.97,1.88,1.78,1,4.03,3.65,1.13,4.43-.09.02-.17.06-.24.12-.12.1-.38.28-.62.43-.37.23-.4.76-.06,1.03.02.02.05.04.07.06,1.64,1.41,3.73,2.32,5.03,4.18.71,1.02,1.92,3.59.76,4.55-2.65,2.2-7.89,1.33-10.78-.06-1.35-.64-2.57-1.77-4.05-2.29-.49-.17-.98.29-.82.78.28.91.97,1.9-.11,2.38-1.33.59-3.89-.22-5.11-.92-.32-.18-.36-.23-.61-.41-2.25-1.59-3.37-3.82-5.22-5.74-.9-.93-1.55-1.85-2.97-1.22,0,0,0,0,0,0,1.14,1.61-.29,3.31-2.1,2.82-.2-.05-2.22-1.37-2.51-1.59-3.78-2.92-4.79-6.03-10.34-6.76-2.93-.38-4.79.21-7.37,1.43-1.67.79-3.1,1.82-4.71,2.66-.26.14-1.16.72-1.23.82-.37.51-.65.65-1.02,1.02-.96.97-2.03,1.95-2.87,2.66-.57.48-1.03.81-1.64,1.23-.93.64-3.38,2.27-3.69,2.46-.47.29-1.74.92-2.05,1.02-1.63.72-5.42-.52-5.31-2.37.06-1.14,3.91-2.3,4.95-2.81,7.23-3.59,13.14-8.46,17.77-15.09.62-.88,1.76-2.77,2.25-3.69,2.17-4.05,4.14-11.67,3.63-16.22-.22-1.98-1.42-5.22-2-7.32-.45-1.65-1.01-3.25-1.43-4.91-.28-1.1-.72-2.11-.82-3.28-.12-1.41-.11-5.27,2.05-5.12,1.23-.17,2.55.34,3.46,1.15.39.35,1.97,3.03,2.09.8.09-1.73-1.2-5.19-1.66-7.06-.72-2.95-1.46-5.56-1.23-8.7.25-3.38,2.12-8.87,6.43-7.67,2.07.58,3,1.51,4.09,3.28.66,1.08,1.14,2.97,1.66,3.66,1.12,1.49,1.34-2.01,1.33-2.76-.05-4.03-1.31-7.25-.58-11.61.67-3.98,3.95-10.77,8.96-9.48,1.66.43,3.61,3,4.24,4.56.11.28.28,1.08.5,1.74.18.53.9.6,1.17.1,1.64-3.01,2.65-6.38,4.94-9.05,1.79-2.09,5.6-5.15,7.74-1.82.19.3.77,1.57.82,1.86.08.48-.16,1.07-.17,1.65,0,.5.55.81.97.55.73-.45,1.74-1.25,2.09-1.44,3.83-2.11,9.61-4.96,13.52-1.73.68.56,1.14.96,1.43,1.84,1,3.06-.91,6.17-2.94,8.32-.37.39-2.7,1.89-2.06,2.34.47.33,1.57.45,2.24,1.01,1.56,1.3,1.3,2.69.51,4.3-1.81,3.65-5.8,3.78-9.26,4.56-.6.13-2.21.4-2.21,1.08,0,.57,2.75,1.96,3.04,2.91.67,2.23-2.19,4.97-3.9,6.04-1.48.93-3.9,1.86-5.63,2.15-1.35.23-3.9,0-4.86.67-2.5,1.71.53,2.15,1.43,3.07,1.96,1.98-.16,4.82-1.74,6.25-2.07,1.87-5,3.03-7.73,3.53-1.29.24-5.21.3-5.99,1.18-1.37,1.54,1.77,1.55,2.51,1.79,2.6.85,1.5,2.9.32,4.52-2.81,3.84-13.05,7.98-13.27,8.12-.35.22-.67.4-1.02.61-.06.04-3.44,2.79-4.3,3.69-2.74,2.87-2.47,4.78-3.68,8.3-.35,1.03-2.47,5.45-2.45,5.95.04,1.02.44.17.65.02,3.39-2.38,7.39-5.41,10.58-8.04,4.81-3.95,5.4-8.05,8.69-12.6,1.38-1.91,4.72-5.15,6.61-2.64l.96.07c2.65-2.66,3.67-6.48,5.57-9.67,1.66-2.79,5.06-7.32,8.43-7.95,1.96-.37,3.08,1.35,2.92,3.13,0,.06-.01.12-.03.18-.13.61.56,1.05,1.03.64,2.01-1.78,2.84-4.52,4.35-6.73,1.85-2.72,4.77-5.29,7.89-6.44,1.57-.58,5.87-1.42,7.02.11,1.5,1.97-1.38,6.88-.62,7.42.55.39,2.91-2.11,3.49-2.54.87-.64,1.5-.91,2.44-1.35,1.86-.86,4.93-2.19,6.32.13.54.9.03,1.47,1.53,1.43.61-.02,1.29-.3,1.88-.33,7.92-.34,13.04,6.56,5.22,11.46Z"/></g></svg>