<?xml version="1.0" encoding="UTF-8"?><svg id="Layer_2" xmlns="http://www.w3.org/2000/svg" viewBox="0 0 198.91 181.92"><defs><style>.cls-1{fill:#fff;opacity:.9;}</style></defs><g id="Layer_1-2"><path class="cls-1" d="M192.24,87.2c-1.43.9-2.98,1.97-4.67,2.52-1.03.34-2.09.41-3.06.61-.94.19-1.2,1.4-.42,1.96,3.99,2.86,4.16,5.94-.86,9.23-2.62,1.72-5.9,2.85-9.05,2.89-1.17.02-4.82-.77-6.54-.67-.56.03-1.01.51-1,1.07,0,1.55,1.89,1.92,2.98,3.08,1.1,1.16,2.39,3.28,1.73,4.9-.23.58-2.32,3.24-2.98,3.68-3.85,2.57-8.45,3.17-12.97,3-1.2-.04-1.85-.15-2.84-.3-.08,0-.18,0-.31-.05-1.2-.18-2.26-.2-3.5-.53-3.54-.94-8.58-3.78-11.93-4.24-.93-.13-2.17-.05-2.65.91-.82,1.66,1.73,2.86,2.45,3.87,3.13,4.34,2.17,8.36-2.6,10.71-10.85,5.35-17.64-1.52-27.3-3.25-1.34-.24-5.29-.7-4.57,1.41.73,2.15,9.59,4.98,6.03,7.93-5.81,4.8-16.78-1.05-23.16-2.03-2.94-.45-6.67-.39-9.61-.04-.78.09-5.49,2.04-5.61,2.1-.69.36-1.44.66-2.1,1.05-1.05.62-2.53,1.43-3.51,2.1-1.5,1.03-3.53,2.64-5.26,3.86-1.86,1.31-3.61,2.89-5.61,4.21-1.76,1.16-3.56,2.27-5.26,3.51v.35c8.21-1.13,14.18-4.93,22.16-6.78,6.66-1.54,13.25-1.75,20.07-.54,2.33.41,6.7,1.12,7.91,3.35,1.15,2.12-3.64,2.92-2.75,4.3.49.76,5.38-.29,6.47-.32,4.09-.11,11.8,1.21,15.37,3.21,3.04,1.71,6.91,6.26,1.93,7.58-.15.04-.3.11-.42.21-.21.18-.65.47-1.06.74-.63.4-.69,1.31-.1,1.77.04.03.08.07.12.1,2.81,2.42,6.39,3.97,8.62,7.17,1.22,1.74,3.29,6.14,1.3,7.79-4.54,3.77-13.52,2.27-18.47-.1-2.31-1.11-4.4-3.03-6.94-3.92-.84-.29-1.67.49-1.41,1.34.47,1.56,1.66,3.26-.19,4.08-2.29,1.01-6.67-.37-8.76-1.57-.55-.32-.61-.39-1.05-.7-3.86-2.72-5.77-6.55-8.94-9.83-1.54-1.59-2.65-3.17-5.09-2.1h0c1.96,2.76-.49,5.66-3.6,4.82-.34-.09-3.8-2.34-4.3-2.72-6.48-5-8.21-10.33-17.72-11.58-5.02-.66-8.21.37-12.63,2.46-2.85,1.35-5.3,3.12-8.07,4.56-.45.23-1.98,1.23-2.1,1.4-.63.87-1.11,1.11-1.75,1.75-1.65,1.66-3.47,3.34-4.91,4.56-.98.82-1.76,1.39-2.81,2.1-1.6,1.09-5.79,3.89-6.31,4.21-.81.5-2.98,1.57-3.51,1.75-2.8,1.24-9.28-.9-9.1-4.05.11-1.95,6.7-3.94,8.48-4.82,12.39-6.15,22.51-14.5,30.45-25.86,1.06-1.51,3.02-4.74,3.86-6.31,3.71-6.94,7.09-20,6.23-27.8-.37-3.39-2.43-8.94-3.42-12.54-.78-2.82-1.72-5.57-2.46-8.42-.48-1.88-1.23-3.61-1.4-5.61-.21-2.42-.19-9.03,3.51-8.77,2.1-.3,4.37.58,5.93,1.96.67.59,3.37,5.19,3.57,1.37.16-2.96-2.05-8.9-2.84-12.11-1.24-5.06-2.5-9.53-2.1-14.9.44-5.79,3.63-15.21,11.02-13.14,3.54.99,5.14,2.58,7.01,5.62,1.13,1.84,1.96,5.08,2.85,6.27,1.92,2.55,2.3-3.44,2.29-4.73-.08-6.91-2.25-12.43-.99-19.9,1.15-6.81,6.77-18.46,15.36-16.24,2.85.74,6.19,5.13,7.27,7.81.2.48.48,1.85.86,2.98.3.91,1.55,1.02,2,.18,2.8-5.17,4.53-10.92,8.46-15.51,3.07-3.59,9.6-8.83,13.26-3.11.33.51,1.32,2.69,1.4,3.19.13.83-.28,1.83-.29,2.83-.01.86.94,1.39,1.67.94,1.25-.78,2.98-2.14,3.58-2.47,6.56-3.61,16.47-8.49,23.17-2.97,1.16.96,1.96,1.64,2.46,3.16,1.72,5.24-1.55,10.57-5.03,14.26-.64.68-4.63,3.24-3.53,4.01.81.57,2.69.77,3.83,1.72,2.67,2.23,2.24,4.61.87,7.37-3.1,6.26-9.94,6.48-15.88,7.81-1.03.23-3.79.69-3.78,1.84,0,.97,4.72,3.36,5.2,4.98,1.14,3.82-3.76,8.52-6.69,10.36-2.54,1.6-6.69,3.2-9.64,3.69-2.31.39-6.68,0-8.33,1.14-4.29,2.94.9,3.69,2.46,5.26,3.36,3.4-.27,8.26-2.98,10.71-3.55,3.2-8.57,5.19-13.25,6.05-2.21.41-8.93.52-10.26,2.01-2.34,2.63,3.03,2.65,4.31,3.07,4.46,1.46,2.58,4.98.55,7.75-4.81,6.58-22.36,13.67-22.74,13.92-.6.38-1.16.69-1.75,1.05-.1.06-5.9,4.78-7.37,6.31-4.7,4.91-4.23,8.18-6.31,14.21-.61,1.77-4.23,9.33-4.2,10.19.06,1.75.75.3,1.12.04,5.8-4.08,12.66-9.27,18.13-13.77,8.24-6.78,9.25-13.79,14.89-21.59,2.36-3.27,8.1-8.82,11.33-4.52.66.05.99.07,1.65.11,4.53-4.57,6.29-11.1,9.55-16.57,2.85-4.78,8.68-12.55,14.44-13.63,3.36-.63,5.28,2.31,5.01,5.36,0,.11-.03.21-.05.31-.22,1.04.97,1.81,1.76,1.1,3.45-3.04,4.87-7.74,7.46-11.53,3.18-4.66,8.18-9.07,13.53-11.03,2.69-.99,10.06-2.43,12.03.18,2.56,3.38-2.36,11.79-1.06,12.72.94.67,4.99-3.62,5.99-4.35,1.49-1.09,2.57-1.56,4.18-2.31,3.19-1.47,8.45-3.75,10.82.23.92,1.54.05,2.52,2.63,2.44,1.04-.03,2.21-.52,3.22-.56,13.57-.57,22.34,11.23,8.94,19.64Z"/></g></svg>