<?xml version="1.0" encoding="UTF-8"?><svg id="Layer_2" xmlns="http://www.w3.org/2000/svg" viewBox="0 0 478.17 209.3"><defs><style>.cls-1{opacity:.9;}.cls-1,.cls-2{fill:#fff;}</style></defs><g id="Layer_1-2"><path class="cls-1" d="M96.91,43.96c-.72.45-1.5.99-2.35,1.27-.52.17-1.05.21-1.54.31s-.6.71-.21.99c2.01,1.44,2.1,2.99-.44,4.65-1.32.86-2.97,1.44-4.56,1.46-.59,0-2.43-.39-3.3-.34-.28.02-.51.26-.51.54,0,.78.95.97,1.5,1.55.55.59,1.2,1.66.87,2.47-.12.29-1.17,1.63-1.5,1.85-1.94,1.3-4.26,1.6-6.54,1.51-.6-.02-.93-.07-1.43-.15-.04,0-.09,0-.16-.02-.6-.09-1.14-.1-1.76-.27-1.78-.47-4.32-1.91-6.01-2.13-.47-.06-1.1-.03-1.34.46-.41.84.87,1.44,1.24,1.95,1.58,2.19,1.1,4.21-1.31,5.4-5.47,2.69-8.89-.76-13.76-1.64-.68-.12-2.67-.35-2.3.71.37,1.08,4.84,2.51,3.04,4-2.93,2.42-8.46-.53-11.67-1.02-1.48-.23-3.36-.2-4.84-.02-.39.05-2.77,1.03-2.83,1.06-.35.18-.72.33-1.06.53-.53.31-1.28.72-1.77,1.06-.76.52-1.78,1.33-2.65,1.95-.94.66-1.82,1.46-2.83,2.12-.88.58-1.8,1.15-2.65,1.77v.18c4.14-.57,7.15-2.49,11.17-3.42,3.36-.78,6.68-.88,10.11-.27,1.17.21,3.38.57,3.99,1.69.58,1.07-1.84,1.47-1.39,2.17.25.38,2.71-.15,3.26-.16,2.06-.06,5.95.61,7.75,1.62,1.53.86,3.48,3.16.97,3.82-.08.02-.15.05-.21.11-.11.09-.33.24-.53.37-.32.2-.35.66-.05.89.02.02.04.03.06.05,1.41,1.22,3.22,2,4.35,3.61.61.88,1.66,3.1.66,3.93-2.29,1.9-6.81,1.15-9.31-.05-1.17-.56-2.22-1.53-3.5-1.97-.42-.15-.84.25-.71.68.24.79.83,1.64-.09,2.05-1.15.51-3.36-.19-4.42-.79-.28-.16-.31-.2-.53-.35-1.95-1.37-2.91-3.3-4.51-4.95-.78-.8-1.33-1.6-2.57-1.06h0c.99,1.39-.25,2.86-1.81,2.43-.17-.05-1.92-1.18-2.17-1.37-3.27-2.52-4.14-5.21-8.93-5.84-2.53-.33-4.14.18-6.37,1.24-1.44.68-2.67,1.58-4.07,2.3-.23.12-1,.62-1.06.71-.32.44-.56.56-.88.88-.83.84-1.75,1.69-2.48,2.3-.49.42-.89.7-1.41,1.06-.81.55-2.92,1.96-3.18,2.12-.41.25-1.5.79-1.77.88-1.41.62-4.68-.45-4.59-2.04.06-.98,3.38-1.98,4.27-2.43,6.24-3.1,11.35-7.31,15.35-13.04.53-.76,1.52-2.39,1.95-3.18,1.87-3.5,3.57-10.08,3.14-14.01-.19-1.71-1.22-4.51-1.72-6.32-.39-1.42-.87-2.81-1.24-4.24-.24-.95-.62-1.82-.71-2.83-.1-1.22-.1-4.55,1.77-4.42,1.06-.15,2.2.29,2.99.99.34.3,1.7,2.62,1.8.69.08-1.49-1.04-4.49-1.43-6.1-.62-2.55-1.26-4.81-1.06-7.51.22-2.92,1.83-7.67,5.56-6.62,1.79.5,2.59,1.3,3.53,2.83.57.93.99,2.56,1.44,3.16.97,1.29,1.16-1.73,1.15-2.39-.04-3.48-1.13-6.26-.5-10.03.58-3.43,3.41-9.3,7.74-8.18,1.44.37,3.12,2.59,3.67,3.94.1.24.24.93.43,1.5.15.46.78.52,1.01.09,1.41-2.6,2.29-5.51,4.26-7.82,1.55-1.81,4.84-4.45,6.69-1.57.16.26.67,1.36.71,1.61.07.42-.14.92-.15,1.43,0,.43.47.7.84.47.63-.39,1.5-1.08,1.81-1.25,3.31-1.82,8.3-4.28,11.68-1.5.58.48.99.83,1.24,1.59.87,2.64-.78,5.33-2.54,7.19-.32.34-2.33,1.63-1.78,2.02.41.29,1.36.39,1.93.87,1.35,1.12,1.13,2.33.44,3.72-1.56,3.16-5.01,3.27-8,3.93-.52.12-1.91.35-1.91.93,0,.49,2.38,1.7,2.62,2.51.57,1.93-1.9,4.29-3.37,5.22-1.28.8-3.37,1.61-4.86,1.86-1.17.2-3.37,0-4.2.58-2.16,1.48.46,1.86,1.24,2.65,1.69,1.71-.13,4.16-1.5,5.4-1.79,1.62-4.32,2.61-6.68,3.05-1.11.2-4.5.26-5.17,1.02-1.18,1.33,1.53,1.34,2.17,1.55,2.25.74,1.3,2.51.28,3.91-2.42,3.32-11.27,6.89-11.47,7.02-.3.19-.58.35-.88.53-.05.03-2.97,2.41-3.71,3.18-2.37,2.48-2.13,4.12-3.18,7.17-.31.89-2.13,4.71-2.12,5.14.03.88.38.15.56.02,2.92-2.06,6.38-4.67,9.14-6.94,4.15-3.42,4.67-6.95,7.51-10.88,1.19-1.65,4.08-4.45,5.71-2.28l.83.06c2.29-2.3,3.17-5.6,4.81-8.35,1.43-2.41,4.37-6.33,7.28-6.87,1.7-.32,2.66,1.16,2.53,2.7,0,.05-.01.11-.02.16-.11.52.49.91.89.56,1.74-1.53,2.46-3.9,3.76-5.81,1.6-2.35,4.12-4.57,6.82-5.56,1.36-.5,5.07-1.22,6.07.09,1.29,1.7-1.19,5.94-.53,6.41.47.34,2.52-1.83,3.02-2.2.75-.55,1.3-.79,2.11-1.16,1.61-.74,4.26-1.89,5.46.11.46.77.03,1.27,1.32,1.23.52-.01,1.11-.26,1.62-.28,6.84-.29,11.26,5.66,4.51,9.9Z"/><path class="cls-2" d="M42.61,131.68c-.08-8.51-.87-9.69-6.77-9.69h-.79v-2.6h24.89v2.6h-.87c-5.91,0-6.7,1.1-6.77,9.69v27.57c0,8.43,1.02,10,6.54,10.08h1.1v2.6h-24.89v-2.6h1.02c5.51,0,6.54-1.65,6.54-10.08v-13.31h-25.28v13.31c0,8.43,1.02,10.08,6.54,10.08h1.02v2.6H0v-2.6h1.1c5.51-.08,6.54-1.65,6.54-10.08v-27.57c-.08-8.59-.87-9.69-6.77-9.69H0v-2.6h24.89v2.6h-.79c-5.91,0-6.7,1.18-6.77,9.69v10.87h25.28v-10.87Z"/><path class="cls-2" d="M95.54,171.93v-2.6h.55c3.86,0,5.43-.79,5.43-2.52,0-.95-.08-1.18-1.5-4.73l-3.23-7.72h-18.67l-1.18,2.91c-2.28,5.51-2.44,6.07-2.44,7.96,0,2.28,2.21,4.1,5.04,4.1h.63v2.6h-16.23v-2.6l.63-.08c3.78-.79,5.75-3.07,8.51-10.16l16.62-40.49h2.6l17.17,41.35c3.39,7.96,4.02,8.74,8.03,9.29l.47.08v2.6h-22.45ZM87.43,131.53l-8.27,20.16h16.62l-8.35-20.16Z"/><path class="cls-2" d="M160.84,171.93c-2.44-1.89-6.22-6.85-10.16-13.08-6.7-10.4-8.19-11.81-11.89-11.5h-1.89v11.89c.08,8.58.95,10,6.54,10.08h1.97v2.6h-26.23v-2.6h1.5c5.59-.08,6.46-1.5,6.54-10.08v-27.57c0-8.59-.87-9.69-6.85-9.69h-.95v-2.6l9.45-.32c5.43-.16,8.51-.24,10.79-.24,7.88,0,14.1,1.1,17.88,3.23,4.1,2.28,6.46,6.06,6.46,10.63,0,6.85-4.49,11.19-13.47,13.08,2.36,1.34,5.99,5.51,10.87,12.52,5.99,8.27,9.14,10.79,13.94,11.03h.39v2.6h-14.89ZM136.89,144.52c3.23,0,6.06-.16,8.35-.39,5.44-.71,8.27-4.49,8.27-11.03,0-3.78-1.02-6.7-3.07-8.66-1.97-1.81-5.12-2.6-10.48-2.6-1.1,0-1.73,0-3.07.08v22.61Z"/><path class="cls-2" d="M172.57,132.79l.16-13.39h51.43l.24,13.39h-2.6c-1.89-8.98-3.94-10.87-11.5-10.63h-7.09v37.1c.08,8.58.95,10,6.54,10.08h2.21v2.6h-27.1v-2.6h2.21c5.59-.08,6.46-1.5,6.54-10.08v-37.1h-6.62c-8.19-.24-10.08,1.42-11.74,10.63h-2.68Z"/><path class="cls-2" d="M265.12,159.8l18.19-40.41h17.8v2.6h-1.65c-6.07,0-6.7.95-6.85,9.69v27.57c.08,8.58.95,10,6.62,10.08h1.97v2.6h-26.31v-2.6h1.58c5.59-.08,6.46-1.5,6.54-10.08v-32.61l-20.32,45.29h-2.21l-20.56-45.05v29.54c-.32,9.29,1.42,12.13,7.72,12.84l.39.08v2.6h-18.83v-2.6l.47-.08c6.07-.71,7.8-3.62,7.48-13v-24.5c0-8.59-.87-9.77-6.85-9.77h-1.1v-2.6h17.72l18.2,40.41Z"/><path class="cls-2" d="M336.79,171.93v-2.6h.55c3.86,0,5.44-.79,5.44-2.52,0-.95-.08-1.18-1.5-4.73l-3.23-7.72h-18.67l-1.18,2.91c-2.28,5.51-2.44,6.07-2.44,7.96,0,2.28,2.21,4.1,5.04,4.1h.63v2.6h-16.23v-2.6l.63-.08c3.78-.79,5.75-3.07,8.51-10.16l16.62-40.49h2.6l17.17,41.35c3.39,7.96,4.02,8.74,8.03,9.29l.47.08v2.6h-22.45ZM328.68,131.53l-8.27,20.16h16.62l-8.35-20.16Z"/><path class="cls-2" d="M406.97,173.04l-36.15-45.61v32.29c.08,4.88.16,5.12.79,6.3,1.18,1.97,4.1,3.31,7.17,3.31h.71v2.6h-19.61v-2.6l.39-.08c3.15-.16,6.14-1.5,7.01-3.23.55-.95.63-1.81.63-6.3v-27.49c-.31-8.9-1.26-10.24-7.25-10.24h-.47v-2.6h16.23l30.4,38.04v-27.25c.08-5.59-1.81-7.64-7.56-8.19h-.87v-2.6h19.06v2.6l-.63.08c-5.51.79-7.33,2.91-7.09,8.51v42.45h-2.76Z"/><path class="cls-2" d="M467.7,173.04l-36.15-45.61v32.29c.08,4.88.16,5.12.79,6.3,1.18,1.97,4.1,3.31,7.17,3.31h.71v2.6h-19.61v-2.6l.39-.08c3.15-.16,6.14-1.5,7.01-3.23.55-.95.63-1.81.63-6.3v-27.49c-.31-8.9-1.26-10.24-7.25-10.24h-.47v-2.6h16.23l30.4,38.04v-27.25c.08-5.59-1.81-7.64-7.56-8.19h-.87v-2.6h19.06v2.6l-.63.08c-5.51.79-7.33,2.91-7.09,8.51v42.45h-2.76Z"/><path class="cls-2" d="M10.69,200.27c0,1.51.09,1.57,2.44,1.74v1.02h-7.89v-1.02c2.35-.17,2.41-.23,2.41-1.74v-13.35c0-1.54-.03-1.6-2.41-1.74v-1.02h8.65c4.64,0,5.92,2.15,5.92,4.67s-1.77,4.12-4.32,4.67v.03c2.84.67,3.6,2.84,3.86,5.08.23,1.74.7,3.16,2.79,3.4v1.02h-2.35c-1.65,0-2.7-.55-3.16-2.29-.29-1.22-.64-3.66-.81-4.24-.52-1.92-2.03-2.41-3.4-2.41h-1.71v6.18ZM10.69,192.9h2.06c2.5,0,3.83-1.04,3.83-3.8,0-3.71-2.26-3.74-4.24-3.74-1.74,0-1.65.2-1.65,1.33v6.21Z"/><path class="cls-2" d="M25.84,195.98c-.06,2.81.64,5.8,3.98,5.8,1.89,0,2.93-1.1,3.77-2.76l1.04.58c-.81,2.18-2.41,3.77-5.46,3.77-4.59,0-6.38-2.67-6.38-6.94s2.06-7.14,6.36-7.14c5.02,0,5.66,3.86,5.66,5.54,0,1.02-.64,1.13-1.13,1.13h-7.84ZM30.86,194.67c.7,0,.9-.23.9-.7,0-1.04-.32-3.48-2.73-3.48-2.73,0-3.16,3.02-3.16,4.18h4.99Z"/><path class="cls-2" d="M47.37,199.28c0,1.71.46,2.18.96,2.29.26.06.7.06,1.07,0l.15,1.02c-.7.44-2.03.78-3.05.78-.93,0-1.42-.49-1.8-1.54-.9.55-2.35,1.54-4.03,1.54-2.58,0-4-1.8-4-3.86,0-1.31.61-2.84,2.55-3.45,2.15-.67,4.79-1.36,5.49-2.09v-.78c0-2.12-1.13-2.67-2.35-2.67-.96,0-1.92.44-2.64,2.44-.17.52-.44.87-1.02.87s-1.54-.43-1.54-1.33c0-1.57,2.23-3.19,5.4-3.19,4.18,0,4.82,2.15,4.82,3.77v6.21ZM44.7,195.37c-.61.35-1.97.87-3.05,1.28-1.45.58-2.03,1.22-2.03,2.5,0,1.57.81,2.58,2.41,2.58,1.04,0,2.67-.55,2.67-2.67v-3.69Z"/><path class="cls-2" d="M52.1,185.76c0-1.02-.14-1.13-.84-1.22l-1.1-.09v-.9l4.47-.75.26.2v17.44c0,1.36.09,1.42,2.06,1.57v1.02h-6.91v-1.02c1.97-.14,2.06-.2,2.06-1.57v-14.68Z"/><path class="cls-2" d="M66,186.92c0-1.54-.03-1.6-2.44-1.74v-1.02h13.96v4.5h-1.02c-.46-2.81-.99-3.37-3.98-3.37h-2.53c-.87,0-.99.12-.99.99v6.27h3.6c2.21,0,2.18-.7,2.44-2.38h1.04v6.07h-1.04c-.23-1.62-.2-2.41-2.44-2.41h-3.6v5.72c0,1.77.32,2.29,3.4,2.29,3.42,0,4.53-.61,5.17-3.86h1.04l-.55,5.05h-14.51v-1.02c2.41-.17,2.44-.23,2.44-1.74v-13.35Z"/><path class="cls-2" d="M87.94,193.48c-.12-1.48-.93-2.99-2.79-2.99-1.33,0-2.41.67-2.41,2.03s1.89,2.09,2.9,2.44c2.96,1.02,4.24,1.92,4.24,4.33s-1.83,4.09-5.08,4.09c-1.6,0-3.37-.35-4.44-1.42l-.26-3.48h.99c.58,2.32,1.65,3.71,3.83,3.71,1.33,0,2.41-.81,2.41-2.06,0-1.36-1.39-2.06-3.08-2.67-2.41-.84-3.92-1.68-3.92-4.21s2.03-3.95,5.05-3.95c1.16,0,2.61.26,3.57.87v3.31h-1.02Z"/><path class="cls-2" d="M95.68,191.01v7.95c0,2.06.84,2.7,1.77,2.7.64,0,1.13-.09,1.77-.35l.26.87c-.99.61-2.03,1.19-3.45,1.19-1.02,0-3.13-.44-3.13-3.16v-9.2h-2v-1.36h2.12l1.71-3.42h.96v3.42h3.51v1.36h-3.51Z"/><path class="cls-2" d="M110.98,199.28c0,1.71.46,2.18.96,2.29.26.06.7.06,1.07,0l.15,1.02c-.7.44-2.03.78-3.05.78-.93,0-1.42-.49-1.8-1.54-.9.55-2.35,1.54-4.03,1.54-2.58,0-4-1.8-4-3.86,0-1.31.61-2.84,2.55-3.45,2.15-.67,4.79-1.36,5.49-2.09v-.78c0-2.12-1.13-2.67-2.35-2.67-.96,0-1.92.44-2.64,2.44-.17.52-.44.87-1.02.87s-1.54-.43-1.54-1.33c0-1.57,2.23-3.19,5.4-3.19,4.18,0,4.82,2.15,4.82,3.77v6.21ZM108.31,195.37c-.61.35-1.97.87-3.05,1.28-1.45.58-2.03,1.22-2.03,2.5,0,1.57.81,2.58,2.41,2.58,1.04,0,2.67-.55,2.67-2.67v-3.69Z"/><path class="cls-2" d="M118.2,191.01v7.95c0,2.06.84,2.7,1.77,2.7.64,0,1.13-.09,1.77-.35l.26.87c-.99.61-2.03,1.19-3.45,1.19-1.02,0-3.13-.44-3.13-3.16v-9.2h-2v-1.36h2.12l1.71-3.42h.96v3.42h3.51v1.36h-3.51Z"/><path class="cls-2" d="M125.83,195.98c-.06,2.81.64,5.8,3.98,5.8,1.89,0,2.93-1.1,3.77-2.76l1.04.58c-.81,2.18-2.41,3.77-5.46,3.77-4.59,0-6.38-2.67-6.38-6.94s2.06-7.14,6.36-7.14c5.02,0,5.66,3.86,5.66,5.54,0,1.02-.64,1.13-1.13,1.13h-7.84ZM130.85,194.67c.7,0,.9-.23.9-.7,0-1.04-.32-3.48-2.73-3.48-2.73,0-3.16,3.02-3.16,4.18h4.99Z"/><path class="cls-2" d="M151.08,184.16c3.31,0,5.89.61,7.63,2.29,1.65,1.6,2.35,4,2.35,6.79,0,6.85-4.41,9.78-10.54,9.78h-8.62v-1.02c2.44-.17,2.44-.2,2.44-1.74v-13.38c0-1.51,0-1.57-2.44-1.71v-1.02h9.17ZM147.39,199.49c0,2.03.35,2.35,2.64,2.35,4.56,0,7.66-1.68,7.66-8.53,0-4.56-1.71-7.98-7.34-7.95-2.82,0-2.96.14-2.96,1.45v12.68Z"/><path class="cls-2" d="M166.46,195.98c-.06,2.81.64,5.8,3.98,5.8,1.89,0,2.93-1.1,3.77-2.76l1.04.58c-.81,2.18-2.41,3.77-5.46,3.77-4.59,0-6.38-2.67-6.38-6.94s2.06-7.14,6.36-7.14c5.02,0,5.66,3.86,5.66,5.54,0,1.02-.64,1.13-1.13,1.13h-7.84ZM171.48,194.67c.7,0,.9-.23.9-.7,0-1.04-.32-3.48-2.73-3.48-2.73,0-3.16,3.02-3.16,4.18h4.99Z"/><path class="cls-2" d="M181.98,203.03c-1.36-3.8-2.73-7.49-4.15-11.14-.41-.99-.7-1.1-1.97-1.19v-1.04h6.41v1.04l-1.28.12c-.46.06-.52.32-.38.75,1.04,2.99,2.06,5.89,3.11,8.74h.06c.84-2.24,2.44-6.5,3.08-8.85.09-.26.06-.58-.32-.64l-1.45-.12v-1.04h5.4v1.04c-1.22.06-1.48.23-1.92,1.07-.67,1.31-2.81,6.88-4.44,11.26h-2.15Z"/><path class="cls-2" d="M193.68,195.98c-.06,2.81.64,5.8,3.98,5.8,1.89,0,2.93-1.1,3.77-2.76l1.04.58c-.81,2.18-2.41,3.77-5.46,3.77-4.59,0-6.38-2.67-6.38-6.94s2.06-7.14,6.36-7.14c5.02,0,5.66,3.86,5.66,5.54,0,1.02-.64,1.13-1.13,1.13h-7.84ZM198.7,194.67c.7,0,.9-.23.9-.7,0-1.04-.32-3.48-2.73-3.48-2.73,0-3.16,3.02-3.16,4.18h4.99Z"/><path class="cls-2" d="M205.8,185.76c0-1.02-.14-1.13-.84-1.22l-1.1-.09v-.9l4.47-.75.26.2v17.44c0,1.36.09,1.42,2.06,1.57v1.02h-6.91v-1.02c1.97-.14,2.06-.2,2.06-1.57v-14.68Z"/><path class="cls-2" d="M225.31,196.35c0,4.41-2.21,7.02-6.65,7.02s-6.65-2.61-6.65-7.02,2.23-7.05,6.67-7.05,6.62,2.61,6.62,7.05ZM218.66,202.19c2.44,0,3.6-2.15,3.6-5.83s-1.16-5.86-3.6-5.86-3.6,2.15-3.6,5.89,1.16,5.8,3.6,5.8Z"/><path class="cls-2" d="M228.76,192.32c0-.99-.17-1.13-.78-1.22l-1.13-.15v-.93l4.32-.7.38,1.97c1.07-.73,2.64-2,4.59-2,4.73,0,5.37,4.59,5.37,6.76,0,5.69-3.22,7.31-6.94,7.31-1.19,0-2.47-.26-3.02-.58v3.95c0,1.36.17,1.39,2.41,1.54v1.02h-7.2v-1.02c1.86-.14,2-.17,2-1.54v-14.42ZM231.54,198.65c0,.61,0,1.16.17,1.62.41,1.25,1.48,1.92,2.87,1.92,2.67,0,3.86-2,3.86-5.95,0-4.67-2.32-5.2-3.4-5.2-1.42,0-2.58.7-3.19,1.92-.2.49-.32.87-.32,1.51v4.18Z"/><path class="cls-2" d="M245.15,192.26c0-.93-.17-1.07-.84-1.16l-1.1-.15v-.93l4.47-.7.23,2c.78-.61,2.61-2.03,4.73-2.03,1.97,0,2.96.84,3.63,2.03.67-.41,2.44-2.03,4.73-2.03,2.64,0,4.18,1.65,4.18,4.38v6.82c0,1.36.09,1.36,2.06,1.51v1.02h-6.82v-1.02c1.89-.14,2-.14,2-1.48v-6.15c0-2.32-1.04-3.4-2.7-3.37-1.62.03-2.82.99-3.08,2.18-.12.46-.09.87-.09,1.36v5.98c0,1.34.09,1.34,1.97,1.48v1.02h-6.73v-1.02c1.89-.14,1.97-.14,1.97-1.48v-6.15c0-1.45-.06-3.37-2.5-3.37-1.51,0-2.64.93-3.16,2.12-.17.38-.2.75-.2,1.39v6.01c0,1.34.15,1.34,1.97,1.48v1.02h-6.79v-1.02c1.92-.14,2.06-.14,2.06-1.51v-8.24Z"/><path class="cls-2" d="M271.67,195.98c-.06,2.81.64,5.8,3.98,5.8,1.89,0,2.93-1.1,3.77-2.76l1.04.58c-.81,2.18-2.41,3.77-5.46,3.77-4.59,0-6.38-2.67-6.38-6.94s2.06-7.14,6.36-7.14c5.02,0,5.66,3.86,5.66,5.54,0,1.02-.64,1.13-1.13,1.13h-7.84ZM276.7,194.67c.7,0,.9-.23.9-.7,0-1.04-.32-3.48-2.73-3.48-2.73,0-3.16,3.02-3.16,4.18h4.99Z"/><path class="cls-2" d="M295.73,200.5c0,1.33.12,1.36,2.06,1.51v1.02h-6.85v-1.02c1.92-.14,2.03-.17,2.03-1.48v-6.15c0-2.32-.96-3.37-2.79-3.37-1.42,0-2.58.9-3.16,2-.23.44-.26.81-.26,1.48v6.04c0,1.31.15,1.34,2.03,1.48v1.02h-6.85v-1.02c1.97-.14,2.06-.17,2.06-1.48v-8.27c0-.93-.2-1.07-.84-1.16l-.99-.15v-.93l4.18-.7.38,2c1.68-1.07,2.93-2.03,4.93-2.03,2.52,0,4.06,1.6,4.06,4.32v6.88Z"/><path class="cls-2" d="M302.96,191.01v7.95c0,2.06.84,2.7,1.77,2.7.64,0,1.13-.09,1.77-.35l.26.87c-.99.61-2.03,1.19-3.45,1.19-1.02,0-3.13-.44-3.13-3.16v-9.2h-2v-1.36h2.12l1.71-3.42h.96v3.42h3.51v1.36h-3.51Z"/><path class="cls-2" d="M324.23,188.28c0,2.18-1.86,3.13-4.18,4.44,1.6,1.86,3.37,3.57,5.83,5.75,1.39-1.51,1.71-3.69,1.71-5.54,0-.55-.03-1.02-.12-1.45.75-.41,1.63-.61,2.29-.52.61.9.7,1.89.44,2.73-.55,1.77-1.74,3.77-3.42,5.6,1.16,1.1,3.25,2.7,4.59,3.05l-.17.9-1.1-.06c-2.26-.12-3.08-.38-5.17-1.94-1.86,1.54-3.6,2.12-5.78,2.12-3.48,0-6.21-1.8-6.18-5.11.03-2.61,1.89-3.77,3.98-5.11-.84-.99-1.71-2.47-1.71-4.27,0-2.44,2.03-4.38,4.79-4.38,2.29,0,4.21,1.39,4.21,3.8ZM315.9,197.57c0,2.47,1.92,4.12,4.33,4.12,1.6,0,2.67-.32,3.74-1.28-2.55-2.18-4.56-4.18-6.36-6.33-.44.41-1.71,1.36-1.71,3.48ZM317.67,188.17c0,1.33.64,2.58,1.65,3.74,1.6-1.02,2.55-2.03,2.55-3.77,0-1.34-.7-2.55-2.09-2.55-1.31,0-2.12,1.1-2.12,2.58Z"/><path class="cls-2" d="M343.29,200.27c0,1.54.09,1.57,2.47,1.74v1.02h-7.89v-1.02c2.35-.17,2.44-.2,2.44-1.74v-13.35c0-1.6-.06-1.6-2.44-1.74v-1.02h7.89v1.02c-2.38.15-2.47.17-2.47,1.74v13.35Z"/><path class="cls-2" d="M360.53,200.5c0,1.33.12,1.36,2.06,1.51v1.02h-6.85v-1.02c1.92-.14,2.03-.17,2.03-1.48v-6.15c0-2.32-.96-3.37-2.79-3.37-1.42,0-2.58.9-3.16,2-.23.44-.26.81-.26,1.48v6.04c0,1.31.15,1.34,2.03,1.48v1.02h-6.85v-1.02c1.97-.14,2.06-.17,2.06-1.48v-8.27c0-.93-.2-1.07-.84-1.16l-.99-.15v-.93l4.18-.7.38,2c1.68-1.07,2.93-2.03,4.93-2.03,2.52,0,4.06,1.6,4.06,4.32v6.88Z"/><path class="cls-2" d="M368.25,203.03c-1.36-3.8-2.73-7.49-4.15-11.14-.41-.99-.7-1.1-1.97-1.19v-1.04h6.41v1.04l-1.28.12c-.46.06-.52.32-.38.75,1.04,2.99,2.06,5.89,3.11,8.74h.06c.84-2.24,2.44-6.5,3.08-8.85.09-.26.06-.58-.32-.64l-1.45-.12v-1.04h5.4v1.04c-1.22.06-1.48.23-1.92,1.07-.67,1.31-2.81,6.88-4.44,11.26h-2.15Z"/><path class="cls-2" d="M379.94,195.98c-.06,2.81.64,5.8,3.98,5.8,1.89,0,2.93-1.1,3.77-2.76l1.04.58c-.81,2.18-2.41,3.77-5.46,3.77-4.59,0-6.38-2.67-6.38-6.94s2.06-7.14,6.36-7.14c5.02,0,5.66,3.86,5.66,5.54,0,1.02-.64,1.13-1.13,1.13h-7.84ZM384.96,194.67c.7,0,.9-.23.9-.7,0-1.04-.32-3.48-2.73-3.48-2.73,0-3.16,3.02-3.16,4.18h4.99Z"/><path class="cls-2" d="M398.54,193.48c-.12-1.48-.93-2.99-2.79-2.99-1.33,0-2.41.67-2.41,2.03s1.89,2.09,2.9,2.44c2.96,1.02,4.24,1.92,4.24,4.33s-1.83,4.09-5.08,4.09c-1.6,0-3.37-.35-4.44-1.42l-.26-3.48h.99c.58,2.32,1.65,3.71,3.83,3.71,1.33,0,2.41-.81,2.41-2.06,0-1.36-1.39-2.06-3.08-2.67-2.41-.84-3.92-1.68-3.92-4.21s2.03-3.95,5.05-3.95c1.16,0,2.61.26,3.57.87v3.31h-1.02Z"/><path class="cls-2" d="M406.29,191.01v7.95c0,2.06.84,2.7,1.77,2.7.64,0,1.13-.09,1.77-.35l.26.87c-.99.61-2.03,1.19-3.45,1.19-1.02,0-3.13-.44-3.13-3.16v-9.2h-2v-1.36h2.12l1.71-3.42h.96v3.42h3.51v1.36h-3.51Z"/><path class="cls-2" d="M412.38,192.26c0-.93-.17-1.07-.84-1.16l-1.1-.15v-.93l4.47-.7.23,2c.78-.61,2.61-2.03,4.73-2.03,1.97,0,2.96.84,3.63,2.03.67-.41,2.44-2.03,4.73-2.03,2.64,0,4.18,1.65,4.18,4.38v6.82c0,1.36.09,1.36,2.06,1.51v1.02h-6.82v-1.02c1.89-.14,2-.14,2-1.48v-6.15c0-2.32-1.04-3.4-2.7-3.37-1.62.03-2.82.99-3.08,2.18-.12.46-.09.87-.09,1.36v5.98c0,1.34.09,1.34,1.97,1.48v1.02h-6.73v-1.02c1.89-.14,1.97-.14,1.97-1.48v-6.15c0-1.45-.06-3.37-2.5-3.37-1.51,0-2.64.93-3.16,2.12-.17.38-.2.75-.2,1.39v6.01c0,1.34.15,1.34,1.97,1.48v1.02h-6.79v-1.02c1.92-.14,2.06-.14,2.06-1.51v-8.24Z"/><path class="cls-2" d="M438.9,195.98c-.06,2.81.64,5.8,3.98,5.8,1.89,0,2.93-1.1,3.77-2.76l1.04.58c-.81,2.18-2.41,3.77-5.46,3.77-4.59,0-6.38-2.67-6.38-6.94s2.06-7.14,6.36-7.14c5.02,0,5.66,3.86,5.66,5.54,0,1.02-.64,1.13-1.13,1.13h-7.84ZM443.92,194.67c.7,0,.9-.23.9-.7,0-1.04-.32-3.48-2.73-3.48-2.73,0-3.16,3.02-3.16,4.18h4.99Z"/><path class="cls-2" d="M462.96,200.5c0,1.33.12,1.36,2.06,1.51v1.02h-6.85v-1.02c1.92-.14,2.03-.17,2.03-1.48v-6.15c0-2.32-.96-3.37-2.79-3.37-1.42,0-2.58.9-3.16,2-.23.44-.26.81-.26,1.48v6.04c0,1.31.15,1.34,2.03,1.48v1.02h-6.85v-1.02c1.97-.14,2.06-.17,2.06-1.48v-8.27c0-.93-.2-1.07-.84-1.16l-.99-.15v-.93l4.18-.7.38,2c1.68-1.07,2.93-2.03,4.93-2.03,2.52,0,4.06,1.6,4.06,4.32v6.88Z"/><path class="cls-2" d="M470.18,191.01v7.95c0,2.06.84,2.7,1.77,2.7.64,0,1.13-.09,1.77-.35l.26.87c-.99.61-2.03,1.19-3.45,1.19-1.02,0-3.13-.44-3.13-3.16v-9.2h-2v-1.36h2.12l1.71-3.42h.96v3.42h3.51v1.36h-3.51Z"/></g></svg>