<?xml version="1.0" encoding="UTF-8"?><svg id="Layer_2" xmlns="http://www.w3.org/2000/svg" viewBox="0 0 100 100"><defs><style>.cls-1{fill:#fff;}</style></defs><g id="Layer_1-2"><path class="cls-1" d="M42.45,81.81c.99,0,1.99,0,2.98,0,0,1.03,0,2.06,0,3.08-.99,0-1.99,0-2.98,0,0-1.03,0-2.06,0-3.08Z"/><path class="cls-1" d="M90.95,78.83c.99,0,1.99,0,2.98,0,0,3.01,0,6.03,0,9.05-.99,0-1.99,0-2.98,0,0-.99,0-1.99,0-2.98h-3.08v-3.08h3.08c0-.99,0-1.99,0-2.98Z"/><path class="cls-1" d="M54.57,66.7c2.02-.01,4.04,0,6.06,0v2.98c.99,0,1.99,0,2.98,0,0,1.03,0,2.06,0,3.08-2.02,0-4.04,0-6.06,0,0-1.03,0-2.06,0-3.08h-2.98c0-.99,0-1.99,0-2.98Z"/><path class="cls-1" d="M42.45,66.7c0,.99,0,1.99,0,2.98-1.03,0-2.06,0-3.08,0,0-.99,0-1.99,0-2.98,1.03,0,2.06,0,3.08,0Z"/><path class="cls-1" d="M69.68,63.62c0,2.02,0,4.04,0,6.06-2.02,0-4.04,0-6.06,0,0-.99,0-1.99,0-2.98h3.08v-3.08c.99,0,1.99,0,2.98,0Z"/><path class="cls-1" d="M36.38,63.62c0,2.02,0,4.04,0,6.06.99,0,1.99,0,2.98,0,0,3.05,0,6.1,0,9.15,1.03,0,2.06,0,3.08,0,0,.99,0,1.99,0,2.98-2.02,0-4.04,0-6.06,0,0-.99,0-1.99,0-2.98h-3.08v-3.08c-.99,0-1.99,0-2.98,0,0,1.03,0,2.06,0,3.08h-3.08v-3.08c1.03,0,2.06,0,3.08,0,.01-2.02,0-4.04,0-6.06h2.98v-6.06c1.03,0,2.06,0,3.08,0Z"/><path class="cls-1" d="M12.13,63.62c0,1.03,0,2.06,0,3.08,2.02,0,4.04,0,6.06,0,0,.99,0,1.99,0,2.98-3.05,0-6.1,0-9.15,0v-6.06c1.03,0,2.06,0,3.08,0Z"/><path class="cls-1" d="M39.36,60.64c0,.99,0,1.99,0,2.98-.99,0-1.99,0-2.98,0,0-.99,0-1.99,0-2.98.99,0,1.99,0,2.98,0Z"/><path class="cls-1" d="M72.76,45.43c0,1.03,0,2.06,0,3.08-1.03,0-2.06,0-3.08,0,0-1.03,0-2.06,0-3.08,1.03,0,2.06,0,3.08,0Z"/><path class="cls-1" d="M30.32,51.49c.99,0,1.99,0,2.98,0v3.08h3.08v-3.08h9.05v6.06h6.06v-2.98h3.08v2.98h2.98v-6.06h-2.98v-6.06h2.98v3.08h3.08v2.98h9.05v3.08h-2.98c0,.99,0,1.99,0,2.98-1.03,0-2.06,0-3.08,0,0-.99,0-1.99,0-2.98h-2.98v2.98c.99,0,1.99,0,2.98,0,0,2.02,0,4.04,0,6.06h-2.98v-2.98h-3.08v2.98h-2.98c0,1.03,0,2.06,0,3.08-1.03,0-2.06,0-3.08,0v2.98h-2.98v-2.98c-2.02,0-4.04-.01-6.06,0,0-1.03,0-2.06,0-3.08h9.05v-2.98c-4.04,0-8.09-.01-12.13,0,0-1.03,0-2.06,0-3.08h-6.06v3.08h-2.98c0-3.05,0-6.1,0-9.15Z"/><path class="cls-1" d="M42.45,45.43v3.08h-3.08v-3.08c1.03,0,2.06,0,3.08,0Z"/><path class="cls-1" d="M36.38,18.19c0,.99,0,1.99,0,2.98-1.03,0-2.06,0-3.08,0,0-.99,0-1.99,0-2.98,1.03,0,2.06,0,3.08,0Z"/><path class="cls-1" d="M75.75,39.36c0,2.02,0,4.04,0,6.06-.99,0-1.99,0-2.98,0,0-2.02,0-4.04,0-6.06.99,0,1.99,0,2.98,0Z"/><path class="cls-1" d="M60.64,39.36c.99,0,1.99,0,2.98,0v3.08h3.08v-3.08c.99,0,1.99,0,2.98,0,0,2.02-.01,4.04,0,6.06-3.01,0-6.03,0-9.05,0,0-2.02,0-4.04,0-6.06Z"/><path class="cls-1" d="M60.64,18.19c0,.99,0,1.99,0,2.98.99,0,1.99,0,2.98,0,0,1.03,0,2.06,0,3.08-2.02,0-4.04,0-6.06,0,0-2.02,0-4.04,0-6.06,1.03,0,2.06,0,3.08,0Z"/><path class="cls-1" d="M75.75,39.36c0-.99,0-1.99,0-2.98h3.08c0,.99,0,1.99,0,2.98-1.03,0-2.06,0-3.08,0Z"/><path class="cls-1" d="M69.68,39.36c0-.99,0-1.99,0-2.98h3.08c0,.99,0,1.99,0,2.98-1.03,0-2.06,0-3.08,0Z"/><path class="cls-1" d="M51.49,30.32c-.01,2.02,0,4.04,0,6.06h3.08v2.98c.99,0,1.99,0,2.98,0,0,1.03,0,2.06,0,3.08h-6.06v-3.08h-2.98v6.06h2.98v6.06h-2.98v-2.98h-3.08v-3.08c-.99,0-1.99,0-2.98,0v-2.98h-3.08v2.98c-.99,0-1.99,0-2.98,0,0,1.03,0,2.06,0,3.08h-3.08v-3.08c1.03,0,2.06,0,3.08,0,0-.99,0-1.99,0-2.98h-12.13v-3.08h2.98v-2.98c1.03,0,2.06,0,3.08,0,0,.99,0,1.99,0,2.98h15.11v-2.98h3.08v-6.06c.99,0,1.99,0,2.98,0Z"/><path class="cls-1" d="M24.25,30.32c7.06-.01,14.12,0,21.17,0v2.98h-2.98v3.08c-4.04.02-8.09-.02-12.13,0,0-1.03,0-2.06,0-3.08h-6.06c0-.99,0-1.99,0-2.98Z"/><path class="cls-1" d="M57.55,24.25c0,.99,0,1.99,0,2.98h12.13v6.06h-9.05v6.06c-1.03,0-2.06,0-3.08,0,.01-2.02,0-4.04,0-6.06h-2.98v-2.98c-1.03,0-2.06,0-3.08,0,0-1.03,0-2.06,0-3.08h3.08v-2.98c.99,0,1.99,0,2.98,0Z"/><path d="M39.36,60.64c4.04-.01,8.09,0,12.13,0v2.98h-9.05c0,1.03,0,2.06,0,3.08-1.03,0-2.06,0-3.08,0,0,.99,0,1.99,0,2.98-.99,0-1.99,0-2.98,0,0-2.02,0-4.04,0-6.06.99,0,1.99,0,2.98,0,0-.99,0-1.99,0-2.98Z"/><path d="M90.95,78.83c0-1.03,0-2.06,0-3.08h2.98v-2.98h6.06v2.98h-2.98v6.06h2.98v6.06c-2.02,0-4.04,0-6.06,0,0-3.01,0-6.03,0-9.05-.99,0-1.99,0-2.98,0Z"/><path d="M42.45,66.7c2.02-.01,4.04,0,6.06,0v2.98h2.98v-2.98c1.03,0,2.06,0,3.08,0,0,.99,0,1.99,0,2.98h2.98c0,1.03,0,2.06,0,3.08-.99,0-1.99,0-2.98,0v2.98h-3.08v-2.98h-9.05c0,2.02,0,4.04,0,6.06-1.03,0-2.06,0-3.08,0,0-3.05,0-6.1,0-9.15,1.03,0,2.06,0,3.08,0,0-.99,0-1.99,0-2.98Z"/><path d="M15.11,39.36c-2.02,0-4.04,0-6.06,0v9.15H2.98v12.13H0v-15.21h6.06v-9.05h-3.08v6.06H0v-18.19h2.98v9.05h3.08v-2.98h2.98v2.98h6.06c0,2.02.01,4.04,0,6.06,1.03,0,2.06,0,3.08,0,0,1.03,0,2.06,0,3.08h2.98v-3.08c-.99,0-1.99,0-2.98,0,0-.99,0-1.99,0-2.98h2.98v-3.08h-2.98v-2.98c2.02,0,4.04,0,6.06,0,0,.99,0,1.99,0,2.98h6.06c0,1.03,0,2.06,0,3.08-1.03,0-2.06,0-3.08,0v2.98h-2.98v3.08h12.13c0,.99,0,1.99,0,2.98-1.03,0-2.06,0-3.08,0v3.08h3.08c0-1.03,0-2.06,0-3.08.99,0,1.99,0,2.98,0v3.08h3.08v-3.08c.99,0,1.99,0,2.98,0v3.08h3.08v2.98h2.98v-6.06h-2.98v-6.06h2.98v3.08h6.06c0-1.03,0-2.06,0-3.08,1.03,0,2.06,0,3.08,0,0,2.02,0,4.04,0,6.06,3.01,0,6.03,0,9.05,0,0,1.03,0,2.06,0,3.08,1.03,0,2.06,0,3.08,0,0,3.01,0,6.03,0,9.05-2.02,0-4.04,0-6.06,0,0-.99,0-1.99,0-2.98h2.98v-3.08h-9.05v-2.98h-3.08v-3.08h-2.98v6.06h2.98v6.06h-2.98v-2.98h-3.08v2.98h-6.06v-6.06h-9.05v3.08h-3.08v-3.08c-.99,0-1.99,0-2.98,0,0-2.02,0-4.04,0-6.06h-6.06v3.08c-1.03,0-2.06,0-3.08,0,0,.99,0,1.99,0,2.98h-2.98v-2.98c.99,0,1.99,0,2.98,0,0-1.03,0-2.06,0-3.08h-6.06v3.08h-2.98v-6.06h2.98c0-1.03,0-2.06,0-3.08Z"/><path d="M51.49,30.32c1.03,0,2.06,0,3.08,0v2.98h2.98c0,2.02.01,4.04,0,6.06-.99,0-1.99,0-2.98,0v-2.98h-3.08c0-2.02-.01-4.04,0-6.06Z"/><path d="M66.7,21.17c0-.99,0-1.99,0-2.98h2.98v2.98c-.99,0-1.99,0-2.98,0,0,1.03,0,2.06,0,3.08h6.06v-6.06h2.98v6.06h15.21v2.98h2.98c0,1.03,0,2.06,0,3.08,1.03,0,2.06,0,3.08,0,0,.99,0,1.99,0,2.98.99,0,1.99,0,2.98,0v3.08h-2.98c0-1.03,0-2.06,0-3.08-1.03,0-2.06,0-3.08,0,0-.99,0-1.99,0-2.98-.99,0-1.99,0-2.98,0v2.98h-3.08v-6.06h-9.05v3.08h2.98v9.05c-.99,0-1.99,0-2.98,0,0-.99,0-1.99,0-2.98h-3.08c0,.99,0,1.99,0,2.98-.99,0-1.99,0-2.98,0,0-.99,0-1.99,0-2.98h-3.08c0,.99,0,1.99,0,2.98-.99,0-1.99,0-2.98,0v3.08h-3.08v-3.08c-.99,0-1.99,0-2.98,0v-6.06h9.05v-6.06h-12.13c0-.99,0-1.99,0-2.98,2.02,0,4.04,0,6.06,0,0-1.03,0-2.06,0-3.08,1.03,0,2.06,0,3.08,0ZM75.75,27.24h-2.98v6.06h2.98v-6.06Z"/><path d="M60.64,18.19c.99,0,1.99,0,2.98,0,0,.99,0,1.99,0,2.98-.99,0-1.99,0-2.98,0,0-.99,0-1.99,0-2.98Z"/><path d="M87.87,45.43c0-2.02,0-4.04,0-6.06h-2.98v-2.98h6.06v2.98h2.98c0,1.03,0,2.06,0,3.08,1.03,0,2.06,0,3.08,0v2.98h-3.08c0-.99,0-1.99,0-2.98-.99,0-1.99,0-2.98,0v2.98c-1.03,0-2.06,0-3.08,0,0,2.02,0,4.04,0,6.06,2.02,0,4.04,0,6.06,0v-2.98h3.08v9.05h2.98v3.08h-6.06v-6.06h-2.98v2.98h-3.08c0-2.02,0-4.04,0-6.06-.99,0-1.99,0-2.98,0v-2.98h-3.08v2.98c-.99,0-1.99,0-2.98,0,0,1.03,0,2.06,0,3.08h-3.08v-3.08c1.03,0,2.06,0,3.08,0,0-.99,0-1.99,0-2.98-2.02,0-4.04.01-6.06,0,0-1.03,0-2.06,0-3.08.99,0,1.99,0,2.98,0,0-2.02,0-4.04,0-6.06,1.03,0,2.06,0,3.08,0,0,1.03,0,2.06,0,3.08h2.98v2.98c2.02,0,4.04.01,6.06,0Z"/><path d="M60.64,6.06c.99,0,1.99,0,2.98,0V0h3.08v2.98c.99,0,1.99,0,2.98,0,0-.99,0-1.99,0-2.98h3.08v2.98c-1.03,0-2.06,0-3.08,0,0,1.03,0,2.06,0,3.08h6.06v2.98h-12.13v6.06h-2.98c0,1.03,0,2.06,0,3.08-1.03,0-2.06,0-3.08,0,0,2.02,0,4.04,0,6.06-.99,0-1.99,0-2.98,0v2.98h-3.08c0,1.03,0,2.06,0,3.08-.99,0-1.99,0-2.98,0v6.06h-3.08v2.98h-15.11c0-.99,0-1.99,0-2.98,4.04-.02,8.09.02,12.13,0v-3.08h2.98v-2.98c-7.06,0-14.12-.01-21.17,0,0-1.03,0-2.06,0-3.08h-6.06v-2.98h6.06v-15.21h2.98v3.08h3.08v2.98h-3.08v9.15c1.03,0,2.06,0,3.08,0,0,.99,0,1.99,0,2.98h2.98v-2.98c-.99,0-1.99,0-2.98,0,0-2.02,0-4.04,0-6.06.99,0,1.99,0,2.98,0,0,.99,0,1.99,0,2.98,1.03,0,2.06,0,3.08,0,0,1.03,0,2.06,0,3.08h2.98v2.98h9.15v-2.98h-6.06v-6.06h2.98v2.98h3.08v-6.06h6.06v-2.98h-3.08v-3.08h6.06v3.08h3.08c0-2.02.01-4.04,0-6.06-1.03,0-2.06,0-3.08,0v-3.08h3.08c0,1.03,0,2.06,0,3.08ZM54.57,18.19h-3.08v2.98h3.08v-2.98Z"/><path d="M72.76,39.36c0,2.02,0,4.04,0,6.06-1.03,0-2.06,0-3.08,0-.01-2.02,0-4.04,0-6.06,1.03,0,2.06,0,3.08,0Z"/><path d="M36.38,18.19c.99,0,1.99,0,2.98,0v2.98c-.99,0-1.99,0-2.98,0,0-.99,0-1.99,0-2.98Z"/><path d="M39.36,45.43v-2.98h3.08v2.98c-1.03,0-2.06,0-3.08,0Z"/><path d="M42.45,78.83c.99,0,1.99,0,2.98,0v-3.08h3.08v9.15c-1.03,0-2.06,0-3.08,0,0-1.03,0-2.06,0-3.08-.99,0-1.99,0-2.98,0,0-.99,0-1.99,0-2.98Z"/><path d="M33.3,18.19c0-2.02,0-4.04,0-6.06h3.08c0,2.02,0,4.04,0,6.06-1.03,0-2.06,0-3.08,0Z"/><path d="M93.94,87.87c0,2.02,0,4.04,0,6.06h-2.98c0-2.02,0-4.04,0-6.06.99,0,1.99,0,2.98,0Z"/><path d="M42.45,81.81c0,1.03,0,2.06,0,3.08.99,0,1.99,0,2.98,0,.02,3.01-.01,6.03,0,9.05h-2.98v-2.98h-3.08v-3.08h-2.98v3.08h-3.08c0,.99,0,1.99,0,2.98,1.03,0,2.06,0,3.08,0,0,1.03,0,2.06,0,3.08.99,0,1.99,0,2.98,0v2.98h-2.98c0-.99,0-1.99,0-2.98-1.03,0-2.06,0-3.08,0,0-1.03,0-2.06,0-3.08-.99,0-1.99,0-2.98,0v3.08c-1.03,0-2.06,0-3.08,0,0,.99,0,1.99,0,2.98h-2.98v-2.98c.99,0,1.99,0,2.98,0,0-2.02,0-4.04,0-6.06h3.08v-3.08h2.98v-2.98h3.08c0-1.03,0-2.06,0-3.08,2.02,0,4.04,0,6.06,0Z"/><path d="M30.32,51.49c0,3.05,0,6.1,0,9.15h2.98v-3.08h6.06c0,1.03,0,2.06,0,3.08-.99,0-1.99,0-2.98,0,0,.99,0,1.99,0,2.98-1.03,0-2.06,0-3.08,0v6.06h-2.98c0,2.02.01,4.04,0,6.06-1.03,0-2.06,0-3.08,0v3.08h3.08c0-1.03,0-2.06,0-3.08.99,0,1.99,0,2.98,0v3.08h3.08c0,.99,0,1.99,0,2.98-2.02,0-4.04,0-6.06,0v3.08c-1.03,0-2.06,0-3.08,0,0,.99,0,1.99,0,2.98h-2.98v-2.98c.99,0,1.99,0,2.98,0,0-1.03,0-2.06,0-3.08h-2.98v-12.13c-2.02,0-4.04,0-6.06,0,0-.99,0-1.99,0-2.98,3.01,0,6.03,0,9.05,0v-9.15h-2.98v-2.98h2.98v-3.08c1.03,0,2.06,0,3.08,0Z"/><path d="M18.19,63.62c0-.99,0-1.99,0-2.98h2.98v2.98c-.99,0-1.99,0-2.98,0,0,1.03,0,2.06,0,3.08-2.02,0-4.04,0-6.06,0,0-1.03,0-2.06,0-3.08,2.02-.01,4.04,0,6.06,0Z"/><path d="M63.62,57.55c-.99,0-1.99,0-2.98,0v-2.98h2.98c0,.99,0,1.99,0,2.98,1.03,0,2.06,0,3.08,0,0,1.03,0,2.06,0,3.08h2.98c0,.99,0,1.99,0,2.98-.99,0-1.99,0-2.98,0v3.08h-3.08c0,.99,0,1.99,0,2.98-.99,0-1.99,0-2.98,0v-2.98c-2.02,0-4.04-.01-6.06,0,0-1.03,0-2.06,0-3.08h2.98v-2.98h3.08v2.98h2.98c0-2.02,0-4.04,0-6.06Z"/><path d="M72.76,63.62c0,1.03,0,2.06,0,3.08h2.98v6.06h9.15v-3.08h-6.06v-2.98h2.98v-3.08h-2.98v-6.06h2.98v-2.98h3.08v6.06h6.06c0,.99,0,1.99,0,2.98h6.06v6.06h-3.08v-2.98h-2.98c0-1.03,0-2.06,0-3.08-2.02,0-4.04,0-6.06,0v3.08h2.98v12.13c1.03,0,2.06,0,3.08,0,0,.99,0,1.99,0,2.98h-3.08v3.08h3.08c0,.99,0,1.99,0,2.98-1.03,0-2.06,0-3.08,0v6.06h-9.05v-6.06h-3.08v3.08h-2.98c0,.99,0,1.99,0,2.98-1.03,0-2.06,0-3.08,0v3.08h3.08c0-1.03,0-2.06,0-3.08.99,0,1.99,0,2.98,0v3.08h3.08v2.98h-18.19v-2.98h-3.08v-3.08h-2.98v6.06h-3.08v-6.06h-2.98v-6.06h2.98v3.08h6.06v-3.08h-2.98v-2.98h-3.08v-6.06h3.08v2.98h2.98v3.08h3.08v-6.06h2.98v2.98h6.06v3.08h-6.06v2.98h-2.98v6.06h6.06v-2.98h2.98v-3.08h3.08v-9.05h-6.06v-3.08h-9.15c0-.99,0-1.99,0-2.98,2.02,0,4.04,0,6.06,0,0-1.03,0-2.06,0-3.08,2.02,0,4.04,0,6.06,0,0-2.02,0-4.04,0-6.06,1.03,0,2.06,0,3.08,0,0-.99,0-1.99,0-2.98h2.98v2.98c-.99,0-1.99,0-2.98,0ZM72.76,72.76h-3.08v2.98h3.08v-2.98ZM84.89,75.75h-9.15v9.15h9.15v-9.15Z"/><path d="M12.13,60.64c0-1.03,0-2.06,0-3.08h2.98v3.08c-.99,0-1.99,0-2.98,0,0,.99,0,1.99,0,2.98-1.03,0-2.06,0-3.08,0v6.06c3.05,0,6.1,0,9.15,0,0,1.03,0,2.06,0,3.08h2.98v2.98h-9.05v-2.98h-6.06c0,.99,0,1.99,0,2.98H0v-2.98h6.06c.01-4.04,0-8.09,0-12.13,2.02,0,4.04,0,6.06,0Z"/><path d="M21.17,0v21.17H0V0h21.17ZM17.99,3.18H3.18v14.81h14.81V3.18Z"/><path d="M100,0v21.17h-21.17V0h21.17ZM96.82,3.18h-14.81v14.81h14.81V3.18Z"/><path d="M21.17,78.83v21.17H0v-21.17h21.17ZM17.99,82.01H3.18v14.81h14.81v-14.81Z"/><path d="M39.36,6.06c-.99,0-1.99,0-2.98,0V0h2.98c0,2.02,0,4.04,0,6.06,1.03,0,2.06,0,3.08,0,0,.99,0,1.99,0,2.98.99,0,1.99,0,2.98,0v-2.98c1.03,0,2.06,0,3.08,0,0-1.03,0-2.06,0-3.08-2.02,0-4.04,0-6.06,0V0h6.06c0,.99,0,1.99,0,2.98.99,0,1.99,0,2.98,0V0h3.08v6.06c-2.02,0-4.04-.01-6.06,0,0,2.02,0,4.04,0,6.06h-3.08v2.98h-2.98c0-2.02,0-4.04,0-6.06-1.03,0-2.06,0-3.08,0,0-.99,0-1.99,0-2.98Z"/><rect x="66.7" y="12.13" width="9.05" height="2.98"/><rect x="9.05" y="51.49" width="6.06" height="3.08"/><rect x="42.45" y="97.02" width="6.06" height="2.98"/><rect x="12.13" y="24.25" width="2.98" height="6.06"/><path d="M27.24,2.98c-.99,0-1.99,0-2.98,0V0h2.98c0,.99,0,1.99,0,2.98,1.03,0,2.06,0,3.08,0,0-.99,0-1.99,0-2.98h2.98v2.98c-.99,0-1.99,0-2.98,0,0,1.03,0,2.06,0,3.08.99,0,1.99,0,2.98,0v2.98h-2.98c0-.99,0-1.99,0-2.98-1.03,0-2.06,0-3.08,0,0-1.03,0-2.06,0-3.08Z"/><rect x="87.87" y="97.02" width="3.08" height="2.98"/><rect y="63.62" width="2.98" height="3.08"/><rect x="97.02" y="24.25" width="2.98" height="2.98"/><rect x="18.19" y="54.57" width="2.98" height="2.98"/><rect x="97.02" y="97.02" width="2.98" height="2.98"/><path class="cls-1" d="M84.89,75.75v9.15h-9.15v-9.15h9.15ZM78.83,78.83v2.98h2.98v-2.98h-2.98Z"/><rect class="cls-1" x="69.68" y="72.76" width="3.08" height="2.98"/><rect class="cls-1" x="51.49" y="18.19" width="3.08" height="2.98"/><rect class="cls-1" x="72.76" y="27.24" width="2.98" height="6.06"/><path class="cls-1" d="M17.99,3.18v14.81H3.18V3.18h14.81ZM15.11,6.06H6.06v9.05h9.05V6.06Z"/><path class="cls-1" d="M96.82,3.18v14.81h-14.81V3.18h14.81ZM93.94,6.06h-9.05v9.05h9.05V6.06Z"/><path class="cls-1" d="M17.99,82.01v14.81H3.18v-14.81h14.81ZM15.11,84.89H6.06v9.05h9.05v-9.05Z"/><rect x="78.83" y="78.83" width="2.98" height="2.98"/><rect x="6.06" y="6.06" width="9.05" height="9.05"/><rect x="84.89" y="6.06" width="9.05" height="9.05"/><rect x="6.06" y="84.89" width="9.05" height="9.05"/></g></svg>